<svg version="1.1" id="Layer_1" xmlns="http://www.w3.org/2000/svg" xmlns:xlink="http://www.w3.org/1999/xlink" x="0px" y="0px"
	 width="100%" viewBox="0 0 1584 396" enable-background="new 0 0 1584 396" xml:space="preserve">
<path fill="#00092C" opacity="1.000000" stroke="none" 
	d="
M1026.000000,397.000000 
	C684.043091,397.000000 342.586182,397.000000 1.064637,397.000000 
	C1.064637,265.059784 1.064637,133.119507 1.064637,1.089622 
	C529.000000,1.089622 1057.000000,1.089622 1584.964600,1.089622 
	C1584.964600,133.080551 1584.964600,265.040283 1584.964600,397.000000 
	C1398.786133,397.000000 1212.643066,397.000000 1026.000000,397.000000 
M506.060913,119.031631 
	C505.502197,120.479950 504.943451,121.928268 504.012726,123.982224 
	C489.611664,158.450790 475.193604,192.912247 460.816803,227.390915 
	C453.724182,244.400604 445.690582,261.142944 442.635590,279.487793 
	C441.482849,286.409760 441.381439,293.741882 442.271210,300.698944 
	C443.068542,306.933502 449.822754,311.227295 456.257721,311.422302 
	C461.999573,311.596313 465.624054,308.895874 468.379974,302.153473 
	C469.445801,299.545929 470.060852,296.753143 471.141479,294.152893 
	C477.567383,278.690216 483.122681,262.768005 490.808228,247.953583 
	C498.748016,232.649033 508.608521,218.319626 517.937622,203.761536 
	C537.515564,173.210098 557.017212,142.544617 581.074768,115.241829 
	C588.818909,106.453094 598.234863,99.093185 607.213806,91.465454 
	C609.707214,89.347206 613.375549,88.612061 616.504883,87.242363 
	C616.869995,87.712646 617.235107,88.182922 617.600220,88.653198 
	C617.216614,90.370857 617.037964,92.167412 616.412598,93.792023 
	C614.145691,99.680611 612.196106,105.755974 609.284607,111.320175 
	C598.891113,131.183273 588.106750,150.841370 577.554626,170.622055 
	C563.907410,196.204941 551.828003,222.387894 546.412292,251.178711 
	C544.024780,263.871002 544.431580,275.783417 554.237488,285.587708 
	C560.595215,291.944427 565.357300,291.098907 569.263550,283.001831 
	C571.710876,277.928925 573.505432,272.454712 576.521912,267.757111 
	C593.019958,242.064423 607.372559,215.068405 626.516541,190.964615 
	C641.421387,172.198303 654.581055,152.059372 672.780334,136.118607 
	C675.624390,133.627518 678.821899,131.348175 682.216370,129.724426 
	C686.748352,127.556572 689.987549,130.119095 689.043701,134.973923 
	C687.955383,140.571777 686.770996,146.213577 684.871826,151.567993 
	C683.711853,154.838638 680.729614,157.420456 679.249756,160.627243 
	C671.115173,178.254105 662.656311,195.759979 655.328918,213.723495 
	C645.763367,237.173782 634.193237,259.835052 630.260620,285.469635 
	C627.295532,304.796875 624.464844,323.691803 632.070557,342.443359 
	C636.604675,353.622101 643.159241,363.491272 653.772888,369.686249 
	C665.343933,376.439972 683.490417,373.134430 695.953186,362.287872 
	C700.054138,358.718750 703.671021,354.498596 706.990295,350.177460 
	C708.154175,348.662231 707.763123,345.952576 708.082092,343.788330 
	C706.062744,343.733917 703.933533,343.248291 702.050171,343.727905 
	C699.345825,344.416656 696.761475,345.687469 694.229553,346.922394 
	C685.251343,351.301514 675.750122,352.186615 666.002441,351.141022 
	C653.972839,349.850586 648.355164,343.364899 650.771484,331.460358 
	C653.571045,317.667297 656.550476,303.660248 661.718872,290.646423 
	C676.051147,254.558151 688.461792,217.627670 706.829102,183.225540 
	C707.531738,181.909592 708.127319,180.531372 708.699768,179.151901 
	C714.431213,165.339569 718.666321,151.328735 716.120483,136.023453 
	C712.321716,113.185692 693.671326,104.108902 674.140259,116.405960 
	C666.751343,121.058136 660.119568,127.132446 653.817688,133.253464 
	C626.405640,159.878769 607.540894,192.710480 587.940735,224.984955 
	C586.150879,227.932159 584.462524,230.941025 582.244446,234.750015 
	C582.101318,233.208786 581.969238,232.857880 582.058105,232.576843 
	C582.859253,230.043594 583.573914,227.473221 584.546692,225.005447 
	C598.499268,189.608139 613.182739,154.565048 632.870178,121.836075 
	C641.535767,107.430084 640.418701,92.924438 631.525574,78.986435 
	C625.033752,68.812042 616.772583,66.569481 606.390015,72.905060 
	C600.225037,76.666985 594.405579,81.430679 589.485474,86.724258 
	C563.252441,114.948502 539.265503,144.963120 518.840881,177.720184 
	C518.142761,178.839859 517.293701,179.865479 516.515015,180.934921 
	C517.860962,173.198593 520.062866,165.917068 522.432190,158.690475 
	C529.052917,138.497238 535.825989,118.353661 542.378662,98.138542 
	C547.398865,82.651031 546.110229,67.588921 538.365906,53.235004 
	C533.443726,44.111858 525.519287,40.053616 515.257507,40.705906 
	C500.338379,41.654240 487.687592,48.216953 476.776001,57.843655 
	C471.123413,62.830620 466.272400,68.943649 461.971405,75.177292 
	C458.450531,80.280312 456.692963,86.569931 453.416504,91.878502 
	C448.288513,100.186958 446.556641,109.118561 447.093719,118.617172 
	C447.427826,124.525787 448.599915,130.380646 453.650574,134.185623 
	C455.399719,135.503326 458.584808,136.490814 460.345734,135.765045 
	C462.039764,135.066849 463.016663,132.057266 463.792816,129.879440 
	C464.444214,128.051498 464.118378,125.896332 464.626038,123.992928 
	C470.734528,101.088875 482.576538,81.491524 499.686859,65.235611 
	C503.256561,61.844154 508.260895,59.497181 513.020386,57.946594 
	C518.434631,56.182732 521.826477,59.088951 521.845520,64.815514 
	C521.859192,68.941383 521.608704,73.257599 520.411926,77.162819 
	C516.671570,89.367928 512.426208,101.418282 508.026611,114.096771 
	C507.495148,115.555733 506.963654,117.014694 506.060913,119.031631 
M1130.209839,252.176926 
	C1130.349731,252.280228 1130.489624,252.383530 1130.600342,253.281830 
	C1126.294312,270.466095 1123.435547,287.844849 1124.132080,305.630249 
	C1124.584839,317.191833 1126.151001,328.508698 1132.913940,338.432526 
	C1141.010132,350.312927 1153.602295,354.581726 1166.442139,348.401337 
	C1173.350952,345.075867 1180.293945,340.645172 1185.437256,335.067719 
	C1197.035034,322.490997 1208.022949,309.266876 1218.309448,295.591949 
	C1227.137085,283.856476 1234.645996,271.129242 1242.971313,258.486450 
	C1243.094971,267.196136 1243.994385,275.481537 1248.632690,282.926941 
	C1254.578735,292.471680 1269.253662,294.989410 1277.687622,287.447235 
	C1290.401367,276.077850 1301.732300,263.554382 1310.147095,248.505249 
	C1314.311157,241.058075 1319.413330,234.135483 1324.090942,226.975540 
	C1324.502197,227.162537 1324.913452,227.349533 1325.324707,227.536530 
	C1324.944214,229.574249 1324.597534,231.618973 1324.177490,233.648499 
	C1321.957764,244.372849 1319.098999,255.010971 1317.661377,265.838257 
	C1316.206787,276.792480 1318.669067,287.435822 1324.458740,296.981781 
	C1331.762329,309.023682 1342.931274,311.727722 1354.714111,304.267853 
	C1358.177124,302.075409 1361.294800,299.163086 1364.110596,296.150604 
	C1385.772339,272.976440 1399.348511,244.724640 1413.380615,216.804214 
	C1414.728760,214.121674 1414.183716,210.487686 1414.517456,207.295380 
	C1413.705078,206.971207 1412.892700,206.647034 1412.080322,206.322861 
	C1409.519653,209.147598 1406.601807,211.726196 1404.457275,214.837631 
	C1391.716187,233.323685 1379.327148,252.054688 1366.417236,270.420471 
	C1362.925537,275.387695 1358.362671,279.759033 1353.691284,283.690796 
	C1349.885620,286.893890 1347.372314,285.525513 1346.476074,280.649872 
	C1346.266846,279.511353 1346.047852,278.294342 1346.227539,277.176727 
	C1348.755981,261.440857 1350.482056,245.503494 1354.250488,230.065994 
	C1356.613525,220.385147 1362.023193,211.438385 1366.154541,202.201920 
	C1369.441650,194.852783 1368.837158,190.130142 1363.720215,184.892822 
	C1357.682617,178.713089 1351.300781,177.542068 1343.925293,182.318878 
	C1338.858276,185.600677 1334.501221,189.978561 1329.618652,194.039642 
	C1329.105713,192.419510 1328.749146,190.467316 1327.899902,188.760300 
	C1324.959473,182.850403 1322.652100,176.388916 1318.628418,171.305054 
	C1310.897461,161.537018 1299.200439,161.025375 1289.536133,168.911346 
	C1287.487061,170.583328 1285.161865,171.918533 1283.127563,173.606247 
	C1278.955933,177.067200 1273.911621,179.998383 1270.987305,184.335037 
	C1264.226074,194.361404 1258.312744,204.983139 1252.413208,215.562836 
	C1233.676025,249.163895 1213.621582,281.909637 1189.246826,311.772186 
	C1184.369019,317.748230 1178.518555,323.241516 1172.205566,327.654114 
	C1164.721191,332.885559 1158.887329,330.009521 1156.580322,321.202423 
	C1156.245483,319.923645 1155.887695,318.578400 1155.943481,317.281189 
	C1156.392334,306.831085 1156.921997,296.384247 1157.465210,285.938446 
	C1157.594116,283.460205 1157.986572,280.992157 1158.043091,278.514557 
	C1158.107666,275.674255 1157.309692,272.674652 1157.967163,270.011017 
	C1161.231445,256.785187 1164.987549,243.681305 1168.302612,230.467255 
	C1170.808350,220.479248 1175.313110,211.788452 1181.515015,203.437241 
	C1194.595947,185.823166 1206.780762,167.539398 1219.176514,149.423218 
	C1224.146851,142.159180 1228.275513,134.292618 1233.529663,127.254433 
	C1250.223877,104.891541 1261.838257,79.998528 1270.436401,53.669777 
	C1273.873413,43.145649 1274.824463,32.193607 1270.171509,21.445032 
	C1264.972290,9.434113 1255.686768,3.064135 1245.277344,5.020555 
	C1237.903564,6.406440 1232.907471,11.574478 1228.894409,17.302889 
	C1218.177734,32.600372 1207.335205,47.857346 1197.588135,63.770748 
	C1190.235596,75.774864 1183.379272,88.330452 1178.265381,101.408310 
	C1166.543823,131.383621 1155.941284,161.799103 1145.052612,192.096313 
	C1140.357056,205.160934 1137.270874,218.788925 1128.714478,230.303452 
	C1117.705444,245.118393 1107.407349,260.460571 1096.466064,275.327545 
	C1093.872314,278.851990 1090.132202,281.654236 1086.553711,284.292633 
	C1083.866943,286.273499 1081.446411,285.473907 1080.776245,281.792755 
	C1080.509155,280.325073 1080.053955,278.783295 1080.254639,277.355530 
	C1082.268677,263.033508 1083.312988,248.452408 1086.846191,234.505615 
	C1089.663330,223.385117 1095.447876,212.996201 1100.118408,202.371857 
	C1103.743652,194.125580 1102.588623,188.490417 1095.676025,182.959076 
	C1090.195068,178.573486 1084.276001,178.064102 1077.667603,182.488251 
	C1072.695679,185.816757 1068.377563,190.121933 1064.136597,193.683228 
	C1061.350586,187.483154 1059.085815,180.824875 1055.557617,174.921783 
	C1047.731323,161.827362 1034.124512,159.944977 1022.538452,169.763474 
	C1021.151611,170.938721 1019.753174,172.248474 1018.126404,172.966202 
	C1011.615723,175.838654 1006.788574,180.577560 1003.185242,186.507599 
	C998.877380,193.597031 995.010498,200.953247 990.776062,208.089142 
	C989.458313,210.309769 987.833862,212.498611 985.894958,214.176453 
	C970.886963,227.163391 952.828674,235.122650 935.567505,244.386993 
	C934.652344,244.878189 933.460083,244.853043 932.402283,245.067154 
	C932.042786,243.685043 931.707153,242.570786 931.465393,241.436523 
	C929.705139,233.178192 927.878845,224.932602 926.243286,216.649445 
	C924.954163,210.120239 924.154785,203.487289 922.689697,197.001678 
	C920.896606,189.063950 920.921021,181.219757 925.484497,174.455872 
	C928.788269,169.559158 929.863647,162.591324 926.228210,157.848251 
	C922.992126,153.626190 917.845886,152.593643 912.322205,155.732666 
	C899.958313,162.759018 891.344727,172.434128 892.838379,187.764236 
	C894.039062,200.087524 895.596924,212.403854 897.706299,224.600479 
	C899.001892,232.091522 901.464844,239.403320 903.704346,246.703354 
	C907.436646,258.869507 906.703796,260.917511 895.539673,266.969177 
	C895.101685,267.206604 894.631226,267.404694 894.239746,267.704529 
	C882.513855,276.686310 869.988831,284.830505 859.349792,294.955963 
	C851.767822,302.171783 844.700745,310.738373 848.628540,323.783234 
	C851.142578,332.132904 854.385193,338.783569 861.895813,343.202362 
	C881.472961,354.720276 916.295471,353.506409 931.720337,323.102112 
	C940.116638,306.551971 940.093872,289.111450 937.522827,271.399872 
	C936.378235,263.514801 936.909180,262.577087 943.821777,258.931854 
	C951.888794,254.677872 959.775330,250.066727 967.608948,245.390732 
	C971.793213,242.893066 975.701172,239.932541 980.454529,236.689148 
	C979.663330,240.685715 978.946289,243.748642 978.462952,246.847992 
	C976.567261,259.003754 975.766479,271.060303 982.270325,282.322998 
	C987.889771,292.054108 1003.801147,294.631012 1012.256409,286.985107 
	C1025.037964,275.427032 1036.352905,262.680420 1044.801392,247.468979 
	C1048.745483,240.367798 1053.679932,233.816650 1058.165405,227.016190 
	C1058.568726,227.223526 1058.972046,227.430847 1059.375366,227.638184 
	C1058.963257,229.722443 1058.564331,231.809372 1058.137085,233.890518 
	C1055.935547,244.616547 1053.078613,255.258606 1051.700073,266.089020 
	C1050.283691,277.214539 1052.764038,288.004608 1058.906982,297.593353 
	C1066.247803,309.052185 1077.162842,311.719727 1088.487549,304.362946 
	C1093.143555,301.338318 1097.545410,297.361267 1100.843872,292.913300 
	C1110.822388,279.457428 1120.203857,265.558838 1130.209839,252.176926 
M196.434372,310.664612 
	C198.389313,315.451630 202.258163,318.136963 207.076874,318.685059 
	C211.651703,319.205414 216.493622,319.303528 220.967178,318.376465 
	C229.551590,316.597473 237.892014,313.665039 246.453888,311.748047 
	C260.237091,308.662018 274.155487,306.181427 287.945801,303.124878 
	C299.690033,300.521851 311.349640,297.527832 323.007111,294.551788 
	C324.877991,294.074158 326.855865,293.099457 328.192993,291.763000 
	C329.114929,290.841522 329.017487,288.900177 329.375610,287.414642 
	C328.020203,287.296936 326.664856,287.086731 325.309418,287.086426 
	C323.833008,287.086090 322.354370,287.396820 320.880463,287.369476 
	C314.888214,287.258270 308.887543,286.774811 302.908142,286.973877 
	C292.289673,287.327301 281.684418,288.077179 270.878540,288.671936 
	C271.157562,287.575745 271.359009,286.617645 271.644806,285.685364 
	C286.852570,236.081558 306.204102,188.060120 327.559418,140.844482 
	C335.287415,123.758240 344.311615,107.261490 352.542542,90.397263 
	C354.613434,86.154282 356.707672,81.630615 357.274139,77.048401 
	C357.650085,74.007294 358.542999,73.483009 360.915497,73.157944 
	C365.354706,72.549690 369.834229,72.072983 374.195618,71.091278 
	C384.848267,68.693489 395.460052,66.105644 406.045319,63.424656 
	C407.911774,62.951927 409.889435,61.973343 411.214569,60.633713 
	C412.130829,59.707470 412.013336,57.758701 412.357758,56.266838 
	C410.998169,56.071602 409.643066,55.772884 408.277557,55.713303 
	C407.149811,55.664093 406.010986,55.975769 404.874939,55.993801 
	C394.059052,56.165462 383.241699,56.259266 372.427155,56.488464 
	C368.961456,56.561916 366.221832,55.808945 363.458862,53.266544 
	C360.488647,50.533424 356.708008,48.384720 352.920898,46.898880 
	C345.605957,44.028942 342.305847,45.619099 339.112427,52.482738 
	C338.763855,53.231869 338.242310,53.898777 337.827728,54.619194 
	C333.842834,61.543118 326.603455,61.692619 320.031128,62.940990 
	C308.607330,65.110863 297.103363,66.856384 285.669525,68.976906 
	C281.577789,69.735756 278.611938,72.169556 278.382202,76.662933 
	C278.154785,81.110558 280.879242,84.220039 284.697510,85.263367 
	C289.712860,86.633812 295.135040,87.857689 300.207733,87.361221 
	C307.808777,86.617294 315.258087,84.322472 322.739929,82.694191 
	C322.540192,83.215874 322.260315,84.129936 321.853424,84.983444 
	C295.550293,140.159790 271.993835,196.493240 250.576401,253.735413 
	C245.902557,266.227142 240.871552,278.571869 246.148285,292.379822 
	C241.903915,293.323700 238.210876,294.331024 234.453522,294.943939 
	C225.094452,296.470612 215.702789,297.796387 206.330460,299.243378 
	C198.314941,300.480988 195.881805,303.067322 196.434372,310.664612 
M761.179810,282.680695 
	C778.924500,267.239777 788.728088,245.758972 802.893982,227.472687 
	C803.031189,229.846603 802.687256,231.946869 802.197205,234.012466 
	C800.318604,241.930389 797.956055,249.762405 796.587036,257.765533 
	C794.505493,269.934052 795.227112,281.914856 800.615601,293.389343 
	C808.278198,309.706268 823.775269,313.159424 837.206360,301.182281 
	C840.546692,298.203583 843.473083,294.740143 846.443665,291.370605 
	C865.582336,269.661194 877.738037,243.679428 890.942749,218.349350 
	C891.918579,216.477417 892.560425,214.285309 892.738892,212.189377 
	C892.884888,210.473846 892.108032,208.679764 891.396484,205.275452 
	C887.953857,208.798340 885.364319,210.867279 883.516724,213.464066 
	C880.051392,218.334488 877.186523,223.629639 873.768738,228.537033 
	C863.029663,243.956802 852.276794,259.370789 841.230530,274.569916 
	C838.637634,278.137604 835.149475,281.234375 831.565613,283.853302 
	C827.705872,286.673889 825.571289,285.480164 824.715698,280.809631 
	C824.506653,279.668488 824.202515,278.454376 824.383362,277.345825 
	C827.029419,261.128998 828.943481,244.731018 832.763672,228.791245 
	C834.968567,219.591080 840.215332,211.105988 844.211548,202.353226 
	C847.812195,194.467117 846.846436,189.173294 840.544617,183.608612 
	C835.063110,178.768295 829.185120,177.873856 822.675293,182.058319 
	C817.382446,185.460510 812.750366,189.890640 808.576477,193.258759 
	C804.962646,186.285294 802.027344,178.356033 797.200134,171.825134 
	C789.531067,161.449402 777.433655,160.890366 767.415039,169.083359 
	C765.122803,170.957901 762.427734,172.333435 760.080872,174.149094 
	C756.818054,176.673477 753.052002,178.902847 750.639160,182.113525 
	C733.558838,204.841766 723.564575,230.419907 721.335815,258.820496 
	C720.576660,268.494324 722.423645,277.856079 728.736450,285.599518 
	C730.691589,287.997833 733.808899,290.686371 736.600586,290.936371 
	C745.500916,291.733429 754.472046,291.367554 761.179810,282.680695 
z"/>
<path fill="#FCFCFD" opacity="1.000000" stroke="none" 
	d="
M1129.817993,251.832764 
	C1120.203857,265.558838 1110.822388,279.457428 1100.843872,292.913300 
	C1097.545410,297.361267 1093.143555,301.338318 1088.487549,304.362946 
	C1077.162842,311.719727 1066.247803,309.052185 1058.906982,297.593353 
	C1052.764038,288.004608 1050.283691,277.214539 1051.700073,266.089020 
	C1053.078613,255.258606 1055.935547,244.616547 1058.137085,233.890518 
	C1058.564331,231.809372 1058.963257,229.722443 1059.375366,227.638184 
	C1058.972046,227.430847 1058.568726,227.223526 1058.165405,227.016190 
	C1053.679932,233.816650 1048.745483,240.367798 1044.801392,247.468979 
	C1036.352905,262.680420 1025.037964,275.427032 1012.256409,286.985107 
	C1003.801147,294.631012 987.889771,292.054108 982.270325,282.322998 
	C975.766479,271.060303 976.567261,259.003754 978.462952,246.847992 
	C978.946289,243.748642 979.663330,240.685715 980.454529,236.689148 
	C975.701172,239.932541 971.793213,242.893066 967.608948,245.390732 
	C959.775330,250.066727 951.888794,254.677872 943.821777,258.931854 
	C936.909180,262.577087 936.378235,263.514801 937.522827,271.399872 
	C940.093872,289.111450 940.116638,306.551971 931.720337,323.102112 
	C916.295471,353.506409 881.472961,354.720276 861.895813,343.202362 
	C854.385193,338.783569 851.142578,332.132904 848.628540,323.783234 
	C844.700745,310.738373 851.767822,302.171783 859.349792,294.955963 
	C869.988831,284.830505 882.513855,276.686310 894.239746,267.704529 
	C894.631226,267.404694 895.101685,267.206604 895.539673,266.969177 
	C906.703796,260.917511 907.436646,258.869507 903.704346,246.703354 
	C901.464844,239.403320 899.001892,232.091522 897.706299,224.600479 
	C895.596924,212.403854 894.039062,200.087524 892.838379,187.764236 
	C891.344727,172.434128 899.958313,162.759018 912.322205,155.732666 
	C917.845886,152.593643 922.992126,153.626190 926.228210,157.848251 
	C929.863647,162.591324 928.788269,169.559158 925.484497,174.455872 
	C920.921021,181.219757 920.896606,189.063950 922.689697,197.001678 
	C924.154785,203.487289 924.954163,210.120239 926.243286,216.649445 
	C927.878845,224.932602 929.705139,233.178192 931.465393,241.436523 
	C931.707153,242.570786 932.042786,243.685043 932.402283,245.067154 
	C933.460083,244.853043 934.652344,244.878189 935.567505,244.386993 
	C952.828674,235.122650 970.886963,227.163391 985.894958,214.176453 
	C987.833862,212.498611 989.458313,210.309769 990.776062,208.089142 
	C995.010498,200.953247 998.877380,193.597031 1003.185242,186.507599 
	C1006.788574,180.577560 1011.615723,175.838654 1018.126404,172.966202 
	C1019.753174,172.248474 1021.151611,170.938721 1022.538452,169.763474 
	C1034.124512,159.944977 1047.731323,161.827362 1055.557617,174.921783 
	C1059.085815,180.824875 1061.350586,187.483154 1064.136597,193.683228 
	C1068.377563,190.121933 1072.695679,185.816757 1077.667603,182.488251 
	C1084.276001,178.064102 1090.195068,178.573486 1095.676025,182.959076 
	C1102.588623,188.490417 1103.743652,194.125580 1100.118408,202.371857 
	C1095.447876,212.996201 1089.663330,223.385117 1086.846191,234.505615 
	C1083.312988,248.452408 1082.268677,263.033508 1080.254639,277.355530 
	C1080.053955,278.783295 1080.509155,280.325073 1080.776245,281.792755 
	C1081.446411,285.473907 1083.866943,286.273499 1086.553711,284.292633 
	C1090.132202,281.654236 1093.872314,278.851990 1096.466064,275.327545 
	C1107.407349,260.460571 1117.705444,245.118393 1128.714478,230.303452 
	C1137.270874,218.788925 1140.357056,205.160934 1145.052612,192.096313 
	C1155.941284,161.799103 1166.543823,131.383621 1178.265381,101.408310 
	C1183.379272,88.330452 1190.235596,75.774864 1197.588135,63.770748 
	C1207.335205,47.857346 1218.177734,32.600372 1228.894409,17.302889 
	C1232.907471,11.574478 1237.903564,6.406440 1245.277344,5.020555 
	C1255.686768,3.064135 1264.972290,9.434113 1270.171509,21.445032 
	C1274.824463,32.193607 1273.873413,43.145649 1270.436401,53.669777 
	C1261.838257,79.998528 1250.223877,104.891541 1233.529663,127.254433 
	C1228.275513,134.292618 1224.146851,142.159180 1219.176514,149.423218 
	C1206.780762,167.539398 1194.595947,185.823166 1181.515015,203.437241 
	C1175.313110,211.788452 1170.808350,220.479248 1168.302612,230.467255 
	C1164.987549,243.681305 1161.231445,256.785187 1157.967163,270.011017 
	C1157.309692,272.674652 1158.107666,275.674255 1158.043091,278.514557 
	C1157.986572,280.992157 1157.594116,283.460205 1157.465210,285.938446 
	C1156.921997,296.384247 1156.392334,306.831085 1155.943481,317.281189 
	C1155.887695,318.578400 1156.245483,319.923645 1156.580322,321.202423 
	C1158.887329,330.009521 1164.721191,332.885559 1172.205566,327.654114 
	C1178.518555,323.241516 1184.369019,317.748230 1189.246826,311.772186 
	C1213.621582,281.909637 1233.676025,249.163895 1252.413208,215.562836 
	C1258.312744,204.983139 1264.226074,194.361404 1270.987305,184.335037 
	C1273.911621,179.998383 1278.955933,177.067200 1283.127563,173.606247 
	C1285.161865,171.918533 1287.487061,170.583328 1289.536133,168.911346 
	C1299.200439,161.025375 1310.897461,161.537018 1318.628418,171.305054 
	C1322.652100,176.388916 1324.959473,182.850403 1327.899902,188.760300 
	C1328.749146,190.467316 1329.105713,192.419510 1329.618652,194.039642 
	C1334.501221,189.978561 1338.858276,185.600677 1343.925293,182.318878 
	C1351.300781,177.542068 1357.682617,178.713089 1363.720215,184.892822 
	C1368.837158,190.130142 1369.441650,194.852783 1366.154541,202.201920 
	C1362.023193,211.438385 1356.613525,220.385147 1354.250488,230.065994 
	C1350.482056,245.503494 1348.755981,261.440857 1346.227539,277.176727 
	C1346.047852,278.294342 1346.266846,279.511353 1346.476074,280.649872 
	C1347.372314,285.525513 1349.885620,286.893890 1353.691284,283.690796 
	C1358.362671,279.759033 1362.925537,275.387695 1366.417236,270.420471 
	C1379.327148,252.054688 1391.716187,233.323685 1404.457275,214.837631 
	C1406.601807,211.726196 1409.519653,209.147598 1412.080322,206.322861 
	C1412.892700,206.647034 1413.705078,206.971207 1414.517456,207.295380 
	C1414.183716,210.487686 1414.728760,214.121674 1413.380615,216.804214 
	C1399.348511,244.724640 1385.772339,272.976440 1364.110596,296.150604 
	C1361.294800,299.163086 1358.177124,302.075409 1354.714111,304.267853 
	C1342.931274,311.727722 1331.762329,309.023682 1324.458740,296.981781 
	C1318.669067,287.435822 1316.206787,276.792480 1317.661377,265.838257 
	C1319.098999,255.010971 1321.957764,244.372849 1324.177490,233.648499 
	C1324.597534,231.618973 1324.944214,229.574249 1325.324707,227.536530 
	C1324.913452,227.349533 1324.502197,227.162537 1324.090942,226.975540 
	C1319.413330,234.135483 1314.311157,241.058075 1310.147095,248.505249 
	C1301.732300,263.554382 1290.401367,276.077850 1277.687622,287.447235 
	C1269.253662,294.989410 1254.578735,292.471680 1248.632690,282.926941 
	C1243.994385,275.481537 1243.094971,267.196136 1242.971313,258.486450 
	C1234.645996,271.129242 1227.137085,283.856476 1218.309448,295.591949 
	C1208.022949,309.266876 1197.035034,322.490997 1185.437256,335.067719 
	C1180.293945,340.645172 1173.350952,345.075867 1166.442139,348.401337 
	C1153.602295,354.581726 1141.010132,350.312927 1132.913940,338.432526 
	C1126.151001,328.508698 1124.584839,317.191833 1124.132080,305.630249 
	C1123.435547,287.844849 1126.294312,270.466095 1130.762939,252.596008 
	C1130.897095,251.311584 1130.868652,250.712982 1130.779175,248.829102 
	C1130.195312,250.653915 1130.006592,251.243347 1129.817993,251.832764 
M1239.076904,83.888718 
	C1239.246826,83.601440 1239.243896,83.315964 1239.610840,82.683952 
	C1239.773071,81.340889 1239.610962,79.847855 1240.151123,78.679520 
	C1243.226074,72.028763 1246.842285,65.605392 1249.565186,58.820087 
	C1253.463623,49.105881 1256.900024,39.148811 1256.234619,28.420250 
	C1255.940674,23.681322 1253.668823,22.484270 1250.251465,25.634777 
	C1246.023438,29.532484 1241.720581,33.798595 1238.960571,38.747917 
	C1232.673096,50.023102 1226.402832,61.460869 1221.741455,73.460320 
	C1209.127563,105.931488 1197.356812,138.730148 1185.251587,171.398880 
	C1185.968628,171.741776 1186.685669,172.084686 1187.402832,172.427582 
	C1189.646851,168.891739 1192.000000,165.419861 1194.116089,161.808990 
	C1203.466797,145.853073 1212.728271,129.845016 1222.081909,113.890831 
	C1223.283813,111.840965 1224.835571,109.996254 1226.784668,107.747498 
	C1227.596924,106.038849 1228.409180,104.330193 1229.747681,102.140373 
	C1230.551880,100.439423 1231.356079,98.738472 1232.742188,96.689430 
	C1234.663940,92.704826 1236.585815,88.720215 1238.759399,84.532013 
	C1238.759399,84.532013 1238.763672,84.208206 1239.076904,83.888718 
M1017.198059,216.925323 
	C1016.173706,218.964157 1015.149353,221.002991 1013.945129,223.502213 
	C1013.945129,223.502213 1013.969727,223.995865 1013.451965,224.312775 
	C1013.325134,224.883560 1013.198242,225.454361 1012.888672,226.491226 
	C1012.901611,226.657608 1012.914551,226.823990 1012.381836,227.269974 
	C1012.272461,227.853104 1012.163086,228.436234 1011.769897,229.689148 
	C1011.182983,231.793137 1010.596069,233.897110 1009.445862,236.271072 
	C1009.345947,236.863235 1009.246033,237.455399 1009.016968,238.532211 
	C1009.063354,238.692825 1009.109741,238.853455 1008.609436,239.505447 
	C1008.428467,241.998779 1008.247437,244.492096 1007.933960,247.761642 
	C1006.973145,252.807709 1005.810608,257.828461 1005.172180,262.914978 
	C1004.976440,264.475098 1005.777588,266.973572 1006.932495,267.641846 
	C1007.920105,268.213257 1010.346313,267.143066 1011.638550,266.150818 
	C1013.724121,264.549347 1015.643066,262.594696 1017.211060,260.477295 
	C1027.902100,246.039902 1038.240112,231.333267 1049.216797,217.118744 
	C1053.740112,211.261276 1054.304932,205.757706 1051.766602,199.162628 
	C1050.349854,195.481277 1048.472290,191.202499 1049.192505,187.681931 
	C1049.981445,183.825928 1049.022827,180.938980 1046.512695,179.768967 
	C1044.308716,178.741608 1040.102539,179.093552 1038.343872,180.627914 
	C1034.582520,183.909439 1031.092285,187.971725 1028.830444,192.398560 
	C1024.772583,200.340149 1019.002930,207.608521 1017.198059,216.925323 
M1285.449341,211.435745 
	C1284.324097,213.633438 1283.198730,215.831116 1281.805908,218.611984 
	C1281.540161,219.408340 1281.274414,220.204697 1280.504761,221.472656 
	C1280.025146,222.990555 1279.545532,224.508438 1278.801880,226.712326 
	C1277.585571,230.816452 1276.369141,234.920578 1274.623291,239.402847 
	C1274.543945,240.594406 1274.464600,241.785965 1274.189209,243.807297 
	C1273.189819,249.142960 1271.882568,254.446686 1271.324097,259.828064 
	C1271.054565,262.425385 1272.193726,265.168854 1272.694824,267.846161 
	C1275.198608,266.548676 1277.837524,265.450867 1280.157104,263.881073 
	C1281.623169,262.888855 1282.717041,261.269226 1283.799438,259.799561 
	C1293.958984,246.005203 1303.797729,231.962234 1314.332153,218.461655 
	C1319.526367,211.805099 1320.519287,205.478668 1317.275879,197.850464 
	C1315.880615,194.569031 1315.711304,190.774002 1314.912231,187.228714 
	C1314.360352,184.779373 1314.418091,181.459595 1312.853394,180.180649 
	C1311.332031,178.937164 1307.892700,179.186646 1305.660156,179.908279 
	C1303.447144,180.623520 1301.083252,182.362900 1299.844238,184.322556 
	C1295.992310,190.414551 1292.547607,196.773346 1289.146118,203.136108 
	C1287.822510,205.612045 1287.035400,208.374832 1285.449341,211.435745 
M906.980530,295.270111 
	C907.331238,289.542847 907.681946,283.815552 908.032593,278.088287 
	C907.597595,277.856384 907.162598,277.624481 906.727600,277.392609 
	C903.697144,279.726196 900.712646,282.122559 897.627136,284.380920 
	C890.117798,289.877075 882.365234,295.061707 875.084167,300.842346 
	C868.838562,305.800995 864.614868,312.426453 862.429260,320.158997 
	C861.116150,324.804291 862.838989,327.971130 867.488708,328.654541 
	C877.272827,330.092621 886.909729,327.806427 893.914185,321.434906 
	C900.977356,315.009979 904.775635,305.714813 906.980530,295.270111 
M1205.593262,67.126755 
	C1208.226562,62.645634 1210.859741,58.164513 1213.493042,53.683388 
	C1212.807373,53.314014 1212.121826,52.944641 1211.436157,52.575268 
	C1207.259033,59.888729 1203.082031,67.202194 1198.904907,74.515656 
	C1199.385010,74.813103 1199.865112,75.110558 1200.345215,75.408012 
	C1201.959595,72.849510 1203.573853,70.291008 1205.593262,67.126755 
M898.880310,341.036011 
	C908.162903,339.261353 915.755310,334.851196 921.698608,327.283173 
	C913.645081,331.877472 905.914978,336.287323 898.880310,341.036011 
z"/>
<path fill="#FCFCFD" opacity="1.000000" stroke="none" 
	d="
M508.376587,113.528610 
	C512.426208,101.418282 516.671570,89.367928 520.411926,77.162819 
	C521.608704,73.257599 521.859192,68.941383 521.845520,64.815514 
	C521.826477,59.088951 518.434631,56.182732 513.020386,57.946594 
	C508.260895,59.497181 503.256561,61.844154 499.686859,65.235611 
	C482.576538,81.491524 470.734528,101.088875 464.626038,123.992928 
	C464.118378,125.896332 464.444214,128.051498 463.792816,129.879440 
	C463.016663,132.057266 462.039764,135.066849 460.345734,135.765045 
	C458.584808,136.490814 455.399719,135.503326 453.650574,134.185623 
	C448.599915,130.380646 447.427826,124.525787 447.093719,118.617172 
	C446.556641,109.118561 448.288513,100.186958 453.416504,91.878502 
	C456.692963,86.569931 458.450531,80.280312 461.971405,75.177292 
	C466.272400,68.943649 471.123413,62.830620 476.776001,57.843655 
	C487.687592,48.216953 500.338379,41.654240 515.257507,40.705906 
	C525.519287,40.053616 533.443726,44.111858 538.365906,53.235004 
	C546.110229,67.588921 547.398865,82.651031 542.378662,98.138542 
	C535.825989,118.353661 529.052917,138.497238 522.432190,158.690475 
	C520.062866,165.917068 517.860962,173.198593 516.515015,180.934921 
	C517.293701,179.865479 518.142761,178.839859 518.840881,177.720184 
	C539.265503,144.963120 563.252441,114.948502 589.485474,86.724258 
	C594.405579,81.430679 600.225037,76.666985 606.390015,72.905060 
	C616.772583,66.569481 625.033752,68.812042 631.525574,78.986435 
	C640.418701,92.924438 641.535767,107.430084 632.870178,121.836075 
	C613.182739,154.565048 598.499268,189.608139 584.546692,225.005447 
	C583.573914,227.473221 582.859253,230.043594 582.058105,232.576843 
	C581.969238,232.857880 582.101318,233.208786 582.244446,234.750015 
	C584.462524,230.941025 586.150879,227.932159 587.940735,224.984955 
	C607.540894,192.710480 626.405640,159.878769 653.817688,133.253464 
	C660.119568,127.132446 666.751343,121.058136 674.140259,116.405960 
	C693.671326,104.108902 712.321716,113.185692 716.120483,136.023453 
	C718.666321,151.328735 714.431213,165.339569 708.699768,179.151901 
	C708.127319,180.531372 707.531738,181.909592 706.829102,183.225540 
	C688.461792,217.627670 676.051147,254.558151 661.718872,290.646423 
	C656.550476,303.660248 653.571045,317.667297 650.771484,331.460358 
	C648.355164,343.364899 653.972839,349.850586 666.002441,351.141022 
	C675.750122,352.186615 685.251343,351.301514 694.229553,346.922394 
	C696.761475,345.687469 699.345825,344.416656 702.050171,343.727905 
	C703.933533,343.248291 706.062744,343.733917 708.082153,343.788330 
	C707.763123,345.952576 708.154175,348.662231 706.990295,350.177460 
	C703.671021,354.498596 700.054138,358.718750 695.953186,362.287872 
	C683.490417,373.134430 665.343933,376.439972 653.772888,369.686249 
	C643.159241,363.491272 636.604675,353.622101 632.070557,342.443359 
	C624.464844,323.691803 627.295532,304.796875 630.260620,285.469635 
	C634.193237,259.835052 645.763367,237.173782 655.328918,213.723495 
	C662.656311,195.759979 671.115173,178.254105 679.249756,160.627243 
	C680.729614,157.420456 683.711853,154.838638 684.871826,151.567993 
	C686.770996,146.213577 687.955383,140.571777 689.043701,134.973923 
	C689.987549,130.119095 686.748352,127.556572 682.216370,129.724426 
	C678.821899,131.348175 675.624390,133.627518 672.780334,136.118607 
	C654.581055,152.059372 641.421387,172.198303 626.516541,190.964615 
	C607.372559,215.068405 593.019958,242.064423 576.521912,267.757111 
	C573.505432,272.454712 571.710876,277.928925 569.263550,283.001831 
	C565.357300,291.098907 560.595215,291.944427 554.237488,285.587708 
	C544.431580,275.783417 544.024780,263.871002 546.412292,251.178711 
	C551.828003,222.387894 563.907410,196.204941 577.554626,170.622055 
	C588.106750,150.841370 598.891113,131.183273 609.284607,111.320175 
	C612.196106,105.755974 614.145691,99.680611 616.412598,93.792023 
	C617.037964,92.167412 617.216614,90.370857 617.600220,88.653198 
	C617.235107,88.182922 616.869995,87.712646 616.504883,87.242363 
	C613.375549,88.612061 609.707214,89.347206 607.213806,91.465454 
	C598.234863,99.093185 588.818909,106.453094 581.074768,115.241829 
	C557.017212,142.544617 537.515564,173.210098 517.937622,203.761536 
	C508.608521,218.319626 498.748016,232.649033 490.808228,247.953583 
	C483.122681,262.768005 477.567383,278.690216 471.141479,294.152893 
	C470.060852,296.753143 469.445801,299.545929 468.379974,302.153473 
	C465.624054,308.895874 461.999573,311.596313 456.257721,311.422302 
	C449.822754,311.227295 443.068542,306.933502 442.271210,300.698944 
	C441.381439,293.741882 441.482849,286.409760 442.635590,279.487793 
	C445.690582,261.142944 453.724182,244.400604 460.816803,227.390915 
	C475.193604,192.912247 489.611664,158.450790 504.484436,123.946068 
	C505.150299,124.083603 505.344513,124.257286 505.430847,124.782928 
	C502.988831,131.375854 500.654633,137.616806 498.191650,144.202057 
	C502.457825,141.193115 512.707214,115.121964 512.547302,107.614159 
	C511.350983,110.249474 510.413452,112.314644 509.202515,114.165176 
	C508.744873,113.809883 508.560699,113.669243 508.376587,113.528610 
M651.521423,235.933029 
	C647.620850,244.798660 643.720276,253.664291 639.819702,262.529907 
	C646.780334,256.128418 661.894531,218.101974 660.720032,210.821732 
	C657.758789,218.960205 654.797607,227.098694 651.521423,235.933029 
z"/>
<path fill="#FCFCFD" opacity="1.000000" stroke="none" 
	d="
M196.298615,310.293518 
	C195.881805,303.067322 198.314941,300.480988 206.330460,299.243378 
	C215.702789,297.796387 225.094452,296.470612 234.453522,294.943939 
	C238.210876,294.331024 241.903915,293.323700 246.148285,292.379822 
	C240.871552,278.571869 245.902557,266.227142 250.576401,253.735413 
	C271.993835,196.493240 295.550293,140.159790 321.853424,84.983444 
	C322.260315,84.129936 322.540192,83.215874 322.739929,82.694191 
	C315.258087,84.322472 307.808777,86.617294 300.207733,87.361221 
	C295.135040,87.857689 289.712860,86.633812 284.697510,85.263367 
	C280.879242,84.220039 278.154785,81.110558 278.382202,76.662933 
	C278.611938,72.169556 281.577789,69.735756 285.669525,68.976906 
	C297.103363,66.856384 308.607330,65.110863 320.031128,62.940990 
	C326.603455,61.692619 333.842834,61.543118 337.827728,54.619194 
	C338.242310,53.898777 338.763855,53.231869 339.112427,52.482738 
	C342.305847,45.619099 345.605957,44.028942 352.920898,46.898880 
	C356.708008,48.384720 360.488647,50.533424 363.458862,53.266544 
	C366.221832,55.808945 368.961456,56.561916 372.427155,56.488464 
	C383.241699,56.259266 394.059052,56.165462 404.874939,55.993801 
	C406.010986,55.975769 407.149811,55.664093 408.277557,55.713303 
	C409.643066,55.772884 410.998169,56.071602 412.357758,56.266838 
	C412.013336,57.758701 412.130829,59.707470 411.214569,60.633713 
	C409.889435,61.973343 407.911774,62.951927 406.045319,63.424656 
	C395.460052,66.105644 384.848267,68.693489 374.195618,71.091278 
	C369.834229,72.072983 365.354706,72.549690 360.915497,73.157944 
	C358.542999,73.483009 357.650085,74.007294 357.274139,77.048401 
	C356.707672,81.630615 354.613434,86.154282 352.542542,90.397263 
	C344.311615,107.261490 335.287415,123.758240 327.559418,140.844482 
	C306.204102,188.060120 286.852570,236.081558 271.644806,285.685364 
	C271.359009,286.617645 271.157562,287.575745 270.878540,288.671936 
	C281.684418,288.077179 292.289673,287.327301 302.908142,286.973877 
	C308.887543,286.774811 314.888214,287.258270 320.880463,287.369476 
	C322.354370,287.396820 323.833008,287.086090 325.309418,287.086426 
	C326.664856,287.086731 328.020203,287.296936 329.375610,287.414642 
	C329.017487,288.900177 329.114929,290.841522 328.192993,291.763000 
	C326.855865,293.099457 324.877991,294.074158 323.007111,294.551788 
	C311.349640,297.527832 299.690033,300.521851 287.945801,303.124878 
	C274.155487,306.181427 260.237091,308.662018 246.453888,311.748047 
	C237.892014,313.665039 229.551590,316.597473 220.967178,318.376465 
	C216.493622,319.303528 211.651703,319.205414 207.076874,318.685059 
	C202.258163,318.136963 198.389313,315.451630 196.298615,310.293518 
M324.632446,120.046066 
	C324.383179,121.797409 324.133911,123.548744 323.884613,125.300087 
	C324.210449,125.405853 324.536285,125.511627 324.862091,125.617401 
	C327.426544,119.911667 329.990997,114.205940 332.555450,108.500214 
	C332.140472,108.288269 331.725494,108.076324 331.310516,107.864380 
	C327.668854,110.740868 325.395447,114.477715 324.632446,120.046066 
z"/>
<path fill="#FCFCFD" opacity="1.000000" stroke="none" 
	d="
M760.914368,282.917786 
	C754.472046,291.367554 745.500916,291.733429 736.600586,290.936371 
	C733.808899,290.686371 730.691589,287.997833 728.736450,285.599518 
	C722.423645,277.856079 720.576660,268.494324 721.335815,258.820496 
	C723.564575,230.419907 733.558838,204.841766 750.639160,182.113525 
	C753.052002,178.902847 756.818054,176.673477 760.080872,174.149094 
	C762.427734,172.333435 765.122803,170.957901 767.415039,169.083359 
	C777.433655,160.890366 789.531067,161.449402 797.200134,171.825134 
	C802.027344,178.356033 804.962646,186.285294 808.576477,193.258759 
	C812.750366,189.890640 817.382446,185.460510 822.675293,182.058319 
	C829.185120,177.873856 835.063110,178.768295 840.544617,183.608612 
	C846.846436,189.173294 847.812195,194.467117 844.211548,202.353226 
	C840.215332,211.105988 834.968567,219.591080 832.763672,228.791245 
	C828.943481,244.731018 827.029419,261.128998 824.383362,277.345825 
	C824.202515,278.454376 824.506653,279.668488 824.715698,280.809631 
	C825.571289,285.480164 827.705872,286.673889 831.565613,283.853302 
	C835.149475,281.234375 838.637634,278.137604 841.230530,274.569916 
	C852.276794,259.370789 863.029663,243.956802 873.768738,228.537033 
	C877.186523,223.629639 880.051392,218.334488 883.516724,213.464066 
	C885.364319,210.867279 887.953857,208.798340 891.396484,205.275452 
	C892.108032,208.679764 892.884888,210.473846 892.738892,212.189377 
	C892.560425,214.285309 891.918579,216.477417 890.942749,218.349350 
	C877.738037,243.679428 865.582336,269.661194 846.443665,291.370605 
	C843.473083,294.740143 840.546692,298.203583 837.206360,301.182281 
	C823.775269,313.159424 808.278198,309.706268 800.615601,293.389343 
	C795.227112,281.914856 794.505493,269.934052 796.587036,257.765533 
	C797.956055,249.762405 800.318604,241.930389 802.197205,234.012466 
	C802.687256,231.946869 803.031189,229.846603 802.893982,227.472687 
	C788.728088,245.758972 778.924500,267.239777 760.914368,282.917786 
M771.014893,194.024033 
	C769.042419,198.383835 767.069885,202.743652 764.998230,207.855011 
	C761.971130,216.320236 758.583069,224.677795 756.016602,233.280441 
	C753.351379,242.214081 751.263977,251.340988 749.416626,260.482941 
	C748.958923,262.748291 750.405884,265.398499 750.977234,267.871765 
	C753.238586,266.772430 755.600403,265.834351 757.722778,264.511902 
	C758.948120,263.748383 759.903442,262.449677 760.781982,261.246948 
	C772.551392,245.135315 784.401978,229.079849 795.883057,212.764587 
	C797.328552,210.710388 797.417969,207.165955 797.035095,204.468201 
	C796.130310,198.093079 793.139954,192.233459 793.732483,185.356918 
	C794.215149,179.754868 788.984680,176.889938 784.041260,179.764404 
	C780.577087,181.778717 777.908386,185.161163 774.278687,188.197800 
	C773.788635,189.383133 773.298584,190.568466 772.683594,192.349579 
	C772.336548,192.832108 771.989502,193.314636 771.014893,194.024033 
z"/>
<path fill="#FCFCFD" opacity="1.000000" stroke="none" 
	d="
M504.670410,123.643250 
	C504.943451,121.928268 505.502197,120.479950 506.497681,118.977722 
	C507.103302,119.072182 507.272186,119.220558 507.351807,119.696564 
	C506.687927,121.493118 506.113342,122.962044 505.538696,124.430969 
	C505.344513,124.257286 505.150299,124.083603 504.670410,123.643250 
z"/>
<path fill="#FCFCFD" opacity="1.000000" stroke="none" 
	d="
M506.683289,118.698730 
	C506.963654,117.014694 507.495148,115.555733 508.201599,113.812683 
	C508.560699,113.669243 508.744873,113.809883 509.104553,114.490051 
	C508.667023,116.476021 508.054077,117.922478 507.441101,119.368935 
	C507.272186,119.220558 507.103302,119.072182 506.683289,118.698730 
z"/>
<path fill="#050E31" opacity="1.000000" stroke="none" 
	d="
M1232.160278,97.037506 
	C1231.356079,98.738472 1230.551880,100.439423 1229.377197,102.092133 
	C1227.549316,103.317802 1226.043579,104.546158 1224.719727,105.946480 
	C1224.605469,106.067383 1225.694946,107.326218 1226.225220,108.056488 
	C1224.835571,109.996254 1223.283813,111.840965 1222.081909,113.890831 
	C1212.728271,129.845016 1203.466797,145.853073 1194.116089,161.808990 
	C1192.000000,165.419861 1189.646851,168.891739 1187.402832,172.427582 
	C1186.685669,172.084686 1185.968628,171.741776 1185.251587,171.398880 
	C1197.356812,138.730148 1209.127563,105.931488 1221.741455,73.460320 
	C1226.402832,61.460869 1232.673096,50.023102 1238.960571,38.747917 
	C1241.720581,33.798595 1246.023438,29.532484 1250.251465,25.634777 
	C1253.668823,22.484270 1255.940674,23.681322 1256.234619,28.420250 
	C1256.900024,39.148811 1253.463623,49.105881 1249.565186,58.820087 
	C1246.842285,65.605392 1243.226074,72.028763 1240.151123,78.679520 
	C1239.610962,79.847855 1239.773071,81.340889 1239.149048,82.748123 
	C1238.687256,82.812286 1238.252686,82.743965 1238.126953,82.569588 
	C1237.915405,82.681015 1237.829590,82.966820 1237.970337,83.521820 
	C1238.385864,83.930077 1238.574829,84.069145 1238.763672,84.208206 
	C1238.763672,84.208206 1238.759399,84.532013 1238.306396,84.397964 
	C1235.348755,88.121658 1232.841919,91.977921 1230.416138,95.884529 
	C1230.405762,95.901360 1231.553467,96.637367 1232.160278,97.037506 
z"/>
<path fill="#030C2F" opacity="1.000000" stroke="none" 
	d="
M1275.152710,239.024704 
	C1276.369141,234.920578 1277.585571,230.816452 1279.292725,226.326752 
	C1282.915894,224.248856 1283.236328,222.956497 1281.008789,221.001053 
	C1281.274414,220.204697 1281.540161,219.408340 1282.309082,218.262970 
	C1283.876099,215.611633 1284.939941,213.309296 1286.003906,211.006958 
	C1287.035400,208.374832 1287.822510,205.612045 1289.146118,203.136108 
	C1292.547607,196.773346 1295.992310,190.414551 1299.844238,184.322556 
	C1301.083252,182.362900 1303.447144,180.623520 1305.660156,179.908279 
	C1307.892700,179.186646 1311.332031,178.937164 1312.853394,180.180649 
	C1314.418091,181.459595 1314.360352,184.779373 1314.912231,187.228714 
	C1315.711304,190.774002 1315.880615,194.569031 1317.275879,197.850464 
	C1320.519287,205.478668 1319.526367,211.805099 1314.332153,218.461655 
	C1303.797729,231.962234 1293.958984,246.005203 1283.799438,259.799561 
	C1282.717041,261.269226 1281.623169,262.888855 1280.157104,263.881073 
	C1277.837524,265.450867 1275.198608,266.548676 1272.694824,267.846130 
	C1272.193726,265.168854 1271.054565,262.425385 1271.324097,259.828064 
	C1271.882568,254.446686 1273.189819,249.142960 1274.616943,243.382263 
	C1275.080566,241.646393 1275.116699,240.335556 1275.152710,239.024704 
M1279.161377,230.479355 
	C1279.161377,230.479355 1279.515869,230.609604 1279.515869,230.609604 
	C1279.515869,230.609604 1279.417725,230.287292 1279.161377,230.479355 
M1278.383057,233.671951 
	C1278.383057,233.671951 1278.518066,233.398941 1278.518066,233.398941 
	C1278.518066,233.398941 1278.175781,233.464706 1278.383057,233.671951 
M1277.418701,236.310730 
	C1277.418701,236.310730 1277.267212,236.544250 1277.267212,236.544250 
	C1277.267212,236.544250 1277.584351,236.520035 1277.418701,236.310730 
M1280.690063,227.536987 
	C1280.503296,227.513611 1280.316650,227.490219 1280.129883,227.466858 
	C1280.212524,227.563309 1280.295288,227.659744 1280.690063,227.536987 
M1283.649170,219.521362 
	C1283.477539,219.494980 1283.305786,219.468597 1283.134155,219.442169 
	C1283.208374,219.530975 1283.282593,219.619781 1283.649170,219.521362 
z"/>
<path fill="#030C2F" opacity="1.000000" stroke="none" 
	d="
M1009.156128,239.014099 
	C1009.109741,238.853455 1009.063354,238.692825 1009.379517,238.244965 
	C1010.317017,237.519043 1010.891968,237.080368 1011.466919,236.641693 
	C1010.981018,236.428162 1010.495117,236.214630 1010.009216,236.001099 
	C1010.596069,233.897110 1011.182983,231.793137 1012.250366,229.325409 
	C1013.352844,228.626373 1013.974976,228.291061 1014.597046,227.955750 
	C1014.040527,227.633957 1013.484009,227.312149 1012.927490,226.990356 
	C1012.914551,226.823990 1012.901611,226.657608 1013.297241,226.218658 
	C1014.296875,225.592880 1014.887817,225.239639 1015.478821,224.886414 
	C1014.975769,224.589584 1014.472717,224.292740 1013.969727,223.995880 
	C1013.969727,223.995865 1013.945129,223.502213 1014.382446,223.210083 
	C1015.860168,220.912048 1016.900635,218.906174 1017.941040,216.900284 
	C1019.002930,207.608521 1024.772583,200.340149 1028.830444,192.398560 
	C1031.092285,187.971725 1034.582520,183.909439 1038.343872,180.627914 
	C1040.102539,179.093552 1044.308716,178.741608 1046.512695,179.768967 
	C1049.022827,180.938980 1049.981445,183.825928 1049.192505,187.681931 
	C1048.472290,191.202499 1050.349854,195.481277 1051.766602,199.162628 
	C1054.304932,205.757706 1053.740112,211.261276 1049.216797,217.118744 
	C1038.240112,231.333267 1027.902100,246.039902 1017.211060,260.477295 
	C1015.643066,262.594696 1013.724121,264.549347 1011.638550,266.150818 
	C1010.346313,267.143066 1007.920105,268.213257 1006.932495,267.641846 
	C1005.777588,266.973572 1004.976440,264.475098 1005.172180,262.914978 
	C1005.810608,257.828461 1006.973145,252.807709 1008.281860,247.151596 
	C1008.805237,244.032410 1008.980713,241.523254 1009.156128,239.014099 
M1012.173828,233.476898 
	C1012.173828,233.476898 1012.512512,233.603180 1012.512512,233.603180 
	C1012.512512,233.603180 1012.420166,233.294357 1012.173828,233.476898 
M1013.439392,230.289627 
	C1013.439392,230.289627 1013.270081,230.584457 1013.270081,230.584457 
	C1013.270081,230.584457 1013.642578,230.536819 1013.439392,230.289627 
z"/>
<path fill="#040D2F" opacity="1.000000" stroke="none" 
	d="
M906.927612,295.696899 
	C904.775635,305.714813 900.977356,315.009979 893.914185,321.434906 
	C886.909729,327.806427 877.272827,330.092621 867.488708,328.654541 
	C862.838989,327.971130 861.116150,324.804291 862.429260,320.158997 
	C864.614868,312.426453 868.838562,305.800995 875.084167,300.842346 
	C882.365234,295.061707 890.117798,289.877075 897.627136,284.380920 
	C900.712646,282.122559 903.697144,279.726196 906.727600,277.392609 
	C907.162598,277.624481 907.597595,277.856384 908.032593,278.088287 
	C907.681946,283.815552 907.331238,289.542847 906.927612,295.696899 
z"/>
<path fill="#1E2645" opacity="1.000000" stroke="none" 
	d="
M1205.390747,67.429626 
	C1203.573853,70.291008 1201.959595,72.849510 1200.345215,75.408012 
	C1199.865112,75.110558 1199.385010,74.813103 1198.904907,74.515656 
	C1203.082031,67.202194 1207.259033,59.888729 1211.436157,52.575268 
	C1212.121826,52.944641 1212.807373,53.314014 1213.493042,53.683388 
	C1210.859741,58.164513 1208.226562,62.645634 1205.390747,67.429626 
z"/>
<path fill="#2D3451" opacity="1.000000" stroke="none" 
	d="
M898.532593,340.866577 
	C905.914978,336.287323 913.645081,331.877472 921.698608,327.283173 
	C915.755310,334.851196 908.162903,339.261353 898.532593,340.866577 
z"/>
<path fill="#262E4B" opacity="1.000000" stroke="none" 
	d="
M1232.451172,96.863457 
	C1231.553467,96.637367 1230.405762,95.901360 1230.416138,95.884529 
	C1232.841919,91.977921 1235.348755,88.121658 1238.180420,84.499756 
	C1236.585815,88.720215 1234.663940,92.704826 1232.451172,96.863457 
z"/>
<path fill="#262E4B" opacity="1.000000" stroke="none" 
	d="
M1226.504883,107.901993 
	C1225.694946,107.326218 1224.605469,106.067383 1224.719727,105.946480 
	C1226.043579,104.546158 1227.549316,103.317802 1229.114014,102.332710 
	C1228.409180,104.330193 1227.596924,106.038849 1226.504883,107.901993 
z"/>
<path fill="#444A64" opacity="1.000000" stroke="none" 
	d="
M1285.726562,211.221344 
	C1284.939941,213.309296 1283.876099,215.611633 1282.442871,217.971375 
	C1283.198730,215.831116 1284.324097,213.633438 1285.726562,211.221344 
z"/>
<path fill="#3E4560" opacity="1.000000" stroke="none" 
	d="
M1008.882812,239.259766 
	C1008.980713,241.523254 1008.805237,244.032410 1008.348145,246.763489 
	C1008.247437,244.492096 1008.428467,241.998779 1008.882812,239.259766 
z"/>
<path fill="#3E4560" opacity="1.000000" stroke="none" 
	d="
M1017.569580,216.912811 
	C1016.900635,218.906174 1015.860168,220.912048 1014.472351,222.979889 
	C1015.149353,221.002991 1016.173706,218.964157 1017.569580,216.912811 
z"/>
<path fill="#444A64" opacity="1.000000" stroke="none" 
	d="
M1280.756836,221.236862 
	C1283.236328,222.956497 1282.915894,224.248856 1279.424805,225.983765 
	C1279.545532,224.508438 1280.025146,222.990555 1280.756836,221.236862 
z"/>
<path fill="#444A64" opacity="1.000000" stroke="none" 
	d="
M1274.887939,239.213776 
	C1275.116699,240.335556 1275.080566,241.646393 1274.714844,242.967392 
	C1274.464600,241.785965 1274.543945,240.594406 1274.887939,239.213776 
z"/>
<path fill="#3E4560" opacity="1.000000" stroke="none" 
	d="
M1012.654663,227.130157 
	C1013.484009,227.312149 1014.040527,227.633957 1014.597046,227.955750 
	C1013.974976,228.291061 1013.352844,228.626373 1012.392273,228.990524 
	C1012.163086,228.436234 1012.272461,227.853104 1012.654663,227.130157 
z"/>
<path fill="#3E4560" opacity="1.000000" stroke="none" 
	d="
M1013.710815,224.154327 
	C1014.472717,224.292740 1014.975769,224.589584 1015.478821,224.886414 
	C1014.887817,225.239639 1014.296875,225.592880 1013.388672,225.985626 
	C1013.198242,225.454361 1013.325134,224.883560 1013.710815,224.154327 
z"/>
<path fill="#3E4560" opacity="1.000000" stroke="none" 
	d="
M1009.727539,236.136078 
	C1010.495117,236.214630 1010.981018,236.428162 1011.466919,236.641693 
	C1010.891968,237.080368 1010.317017,237.519043 1009.444092,238.002655 
	C1009.246033,237.455399 1009.345947,236.863235 1009.727539,236.136078 
z"/>
<path fill="#00092C" opacity="1.000000" stroke="none" 
	d="
M1130.013916,252.004852 
	C1130.006592,251.243347 1130.195312,250.653915 1130.779175,248.829102 
	C1130.868652,250.712982 1130.897095,251.311584 1130.777466,252.198502 
	C1130.489624,252.383530 1130.349731,252.280228 1130.013916,252.004852 
z"/>
<path fill="#262E4B" opacity="1.000000" stroke="none" 
	d="
M1238.920288,84.048462 
	C1238.574829,84.069145 1238.385864,83.930077 1238.096924,83.394012 
	C1237.997070,82.997025 1238.252686,82.743965 1238.252686,82.743965 
	C1238.252686,82.743965 1238.687256,82.812286 1238.877686,82.922287 
	C1239.243896,83.315964 1239.246826,83.601440 1238.920288,84.048462 
z"/>
<path fill="#1E2645" opacity="1.000000" stroke="none" 
	d="
M651.678955,235.585114 
	C654.797607,227.098694 657.758789,218.960205 660.720032,210.821732 
	C661.894531,218.101974 646.780334,256.128418 639.819702,262.529907 
	C643.720276,253.664291 647.620850,244.798660 651.678955,235.585114 
z"/>
<path fill="#222948" opacity="1.000000" stroke="none" 
	d="
M507.351807,119.696564 
	C508.054077,117.922478 508.667023,116.476021 509.377960,114.704697 
	C510.413452,112.314644 511.350983,110.249474 512.547302,107.614159 
	C512.707214,115.121964 502.457825,141.193115 498.191650,144.202057 
	C500.654633,137.616806 502.988831,131.375854 505.430878,124.782928 
	C506.113342,122.962044 506.687927,121.493118 507.351807,119.696564 
z"/>
<path fill="#1B2342" opacity="1.000000" stroke="none" 
	d="
M324.704346,119.650391 
	C325.395447,114.477715 327.668854,110.740868 331.310516,107.864380 
	C331.725494,108.076324 332.140472,108.288269 332.555450,108.500214 
	C329.990997,114.205940 327.426544,119.911667 324.862091,125.617401 
	C324.536285,125.511627 324.210449,125.405853 323.884613,125.300087 
	C324.133911,123.548744 324.383179,121.797409 324.704346,119.650391 
z"/>
<path fill="#030C2F" opacity="1.000000" stroke="none" 
	d="
M774.884521,187.932617 
	C777.908386,185.161163 780.577087,181.778717 784.041260,179.764404 
	C788.984680,176.889938 794.215149,179.754868 793.732483,185.356918 
	C793.139954,192.233459 796.130310,198.093079 797.035095,204.468201 
	C797.417969,207.165955 797.328552,210.710388 795.883057,212.764587 
	C784.401978,229.079849 772.551392,245.135315 760.781982,261.246948 
	C759.903442,262.449677 758.948120,263.748383 757.722778,264.511902 
	C755.600403,265.834351 753.238586,266.772430 750.977295,267.871765 
	C750.405884,265.398499 748.958923,262.748291 749.416626,260.482941 
	C751.263977,251.340988 753.351379,242.214081 756.016602,233.280441 
	C758.583069,224.677795 761.971130,216.320236 765.407532,207.416809 
	C767.758728,202.584793 769.700623,198.190994 771.642517,193.797180 
	C771.989502,193.314636 772.336548,192.832108 773.087524,192.046906 
	C773.955750,190.473694 774.420105,189.203156 774.884521,187.932617 
z"/>
<path fill="#9599A7" opacity="1.000000" stroke="none" 
	d="
M771.328735,193.910614 
	C769.700623,198.190994 767.758728,202.584793 765.457092,207.041046 
	C767.069885,202.743652 769.042419,198.383835 771.328735,193.910614 
z"/>
<path fill="#9599A7" opacity="1.000000" stroke="none" 
	d="
M774.581604,188.065216 
	C774.420105,189.203156 773.955750,190.473694 773.149963,191.749008 
	C773.298584,190.568466 773.788635,189.383133 774.581604,188.065216 
z"/>
<path fill="#262E4B" opacity="1.000000" stroke="none" 
	d="
M1237.870361,83.124825 
	C1237.829590,82.966820 1237.915405,82.681015 1238.126953,82.569588 
	C1238.252686,82.743965 1237.997070,82.997025 1237.870361,83.124825 
z"/>
<path fill="#444A64" opacity="1.000000" stroke="none" 
	d="
M1279.289551,230.383331 
	C1279.417725,230.287292 1279.515869,230.609604 1279.515869,230.609604 
	C1279.515869,230.609604 1279.161377,230.479355 1279.289551,230.383331 
z"/>
<path fill="#444A64" opacity="1.000000" stroke="none" 
	d="
M1278.279419,233.568329 
	C1278.175781,233.464706 1278.518066,233.398941 1278.518066,233.398941 
	C1278.518066,233.398941 1278.383057,233.671951 1278.279419,233.568329 
z"/>
<path fill="#444A64" opacity="1.000000" stroke="none" 
	d="
M1277.501465,236.415375 
	C1277.584351,236.520035 1277.267212,236.544250 1277.267212,236.544250 
	C1277.267212,236.544250 1277.418701,236.310730 1277.501465,236.415375 
z"/>
<path fill="#444A64" opacity="1.000000" stroke="none" 
	d="
M1280.534058,227.646576 
	C1280.295288,227.659744 1280.212524,227.563309 1280.129883,227.466843 
	C1280.316650,227.490219 1280.503296,227.513611 1280.534058,227.646576 
z"/>
<path fill="#444A64" opacity="1.000000" stroke="none" 
	d="
M1283.502930,219.614975 
	C1283.282593,219.619781 1283.208374,219.530975 1283.134155,219.442184 
	C1283.305786,219.468597 1283.477539,219.494980 1283.502930,219.614975 
z"/>
<path fill="#3E4560" opacity="1.000000" stroke="none" 
	d="
M1012.296997,233.385620 
	C1012.420166,233.294357 1012.512512,233.603180 1012.512512,233.603180 
	C1012.512512,233.603180 1012.173828,233.476898 1012.296997,233.385620 
z"/>
<path fill="#3E4560" opacity="1.000000" stroke="none" 
	d="
M1013.541016,230.413223 
	C1013.642578,230.536819 1013.270081,230.584457 1013.270081,230.584457 
	C1013.270081,230.584457 1013.439392,230.289627 1013.541016,230.413223 
z"/>
</svg>