<svg xmlns="http://www.w3.org/2000/svg" xmlns:xlink="http://www.w3.org/1999/xlink" width="500" zoomAndPan="magnify" viewBox="0 0 375 374.999991" height="500" preserveAspectRatio="xMidYMid meet" version="1.0"><defs><g/></defs><g fill="#ffffff" fill-opacity="1"><g transform="translate(0.408138, 215.952351)"><g><path d="M 67.941406 -73.425781 L 67.941406 -73.53125 C 67.832031 -74.058594 67.515625 -74.164062 66.988281 -74.269531 C 66.566406 -74.375 66.777344 -73.742188 66.355469 -73.742188 C 65.933594 -73.636719 64.773438 -73.847656 64.351562 -73.847656 C 61.714844 -74.058594 59.078125 -73.953125 56.441406 -73.742188 C 55.808594 -73.742188 54.753906 -73.53125 54.226562 -73.636719 C 53.066406 -73.847656 53.066406 -74.269531 52.21875 -75.007812 C 50.953125 -76.167969 48.84375 -77.222656 47.050781 -77.011719 C 46.207031 -76.90625 45.679688 -76.800781 45.152344 -76.167969 C 44.835938 -75.746094 45.152344 -75.429688 45.152344 -75.429688 C 44.941406 -74.902344 44.519531 -74.164062 44.097656 -73.742188 C 43.253906 -72.6875 43.359375 -72.6875 41.882812 -72.265625 C 40.40625 -71.84375 39.351562 -71.527344 37.875 -71.421875 C 35.867188 -71.316406 33.96875 -70.789062 31.964844 -70.367188 C 30.59375 -70.15625 28.695312 -70.15625 27.429688 -69.523438 C 26.691406 -69.207031 26.375 -68.996094 26.058594 -68.257812 C 24.792969 -65.089844 29.117188 -63.71875 31.4375 -63.824219 C 33.125 -63.929688 35.761719 -64.140625 37.238281 -64.773438 C 38.296875 -65.195312 38.929688 -65.617188 39.984375 -65.828125 C 37.132812 -59.921875 34.601562 -53.910156 31.859375 -47.894531 C 29.222656 -41.988281 26.269531 -36.078125 24.054688 -29.960938 C 23.105469 -27.324219 22.46875 -24.582031 21.308594 -21.941406 C 20.042969 -19.304688 18.882812 -16.667969 17.933594 -13.925781 C 16.351562 -9.496094 13.714844 -4.429688 15.824219 0.210938 C 12.554688 1.265625 9.074219 1.476562 5.589844 2.109375 C 4.324219 2.425781 2.53125 2.320312 1.371094 2.953125 C -0.84375 4.113281 -0.105469 6.75 1.792969 7.914062 C 4.324219 9.390625 8.96875 8.441406 11.605469 7.597656 C 12.554688 7.277344 13.292969 6.75 14.347656 6.539062 C 16.035156 6.328125 17.722656 5.90625 19.410156 5.695312 C 22.46875 5.273438 24.792969 4.535156 27.746094 3.902344 L 33.230469 2.742188 C 34.074219 2.53125 34.707031 2.003906 35.234375 1.6875 C 35.761719 1.476562 36.289062 1.476562 37.132812 1.371094 C 38.296875 1.371094 41.988281 0.949219 41.988281 -0.738281 C 41.988281 -1.371094 41.671875 -1.6875 41.144531 -1.792969 C 40.722656 -1.898438 40.828125 -1.265625 40.40625 -1.265625 C 39.878906 -1.160156 38.929688 -1.371094 38.402344 -1.371094 C 33.441406 -1.6875 28.378906 -1.265625 23.421875 -0.738281 C 24.898438 -5.800781 26.585938 -10.867188 28.589844 -15.71875 C 29.855469 -18.988281 30.488281 -22.257812 31.859375 -25.425781 C 33.546875 -29.539062 35.234375 -33.652344 37.238281 -37.660156 C 39.035156 -41.25 39.984375 -44.941406 41.777344 -48.421875 C 43.675781 -52.324219 45.46875 -56.125 47.472656 -59.921875 C 48.527344 -62.03125 50.109375 -64.457031 50.742188 -66.777344 C 50.847656 -67.410156 50.109375 -67.621094 50.847656 -68.257812 C 51.164062 -68.46875 52.535156 -68.363281 52.960938 -68.46875 C 54.859375 -68.785156 56.757812 -69.207031 58.65625 -69.628906 C 60.660156 -70.050781 61.082031 -70.894531 62.769531 -71 C 63.929688 -71.105469 68.257812 -71.421875 67.941406 -73.425781 Z M 41.144531 -53.59375 C 40.722656 -52.746094 40.300781 -52.007812 39.984375 -51.164062 C 40.300781 -52.535156 40.195312 -53.910156 40.722656 -55.28125 C 41.144531 -56.441406 42.515625 -57.601562 43.253906 -58.761719 C 42.621094 -56.96875 42.09375 -55.28125 41.144531 -53.59375 Z M 36.816406 -47.683594 L 35.339844 -45.363281 C 35.867188 -46.628906 36.183594 -47.894531 36.816406 -49.160156 C 37.027344 -49.582031 37.449219 -50.109375 37.875 -50.636719 C 37.449219 -49.6875 37.34375 -48.632812 36.816406 -47.683594 Z M 36.816406 -47.683594 "/></g></g></g><g fill="#ffffff" fill-opacity="1"><g transform="translate(47.666649, 215.952351)"><g/></g></g><g fill="#ffffff" fill-opacity="1"><g transform="translate(77.203223, 215.952351)"><g><path d="M 78.382812 17.828125 C 75.429688 18.882812 70.578125 19.410156 67.621094 17.828125 C 64.5625 16.140625 65.722656 11.5 66.355469 8.757812 C 67.621094 3.058594 69.839844 -2.53125 72.054688 -8.019531 C 73.320312 -10.867188 74.480469 -13.820312 75.746094 -16.773438 C 76.0625 -17.40625 78.804688 -24.265625 78.699219 -24.265625 C 78.488281 -24.265625 78.171875 -23.949219 77.960938 -23.527344 C 81.652344 -31.226562 87.878906 -39.773438 86.191406 -48.949219 C 85.453125 -52.855469 82.707031 -56.757812 78.382812 -56.652344 C 74.691406 -56.652344 71.316406 -53.910156 68.785156 -51.585938 C 64.035156 -47.367188 60.132812 -42.410156 56.441406 -37.34375 C 56.019531 -36.816406 54.332031 -34.285156 52.429688 -31.332031 C 53.382812 -32.914062 54.648438 -34.390625 55.703125 -35.867188 C 51.269531 -29.644531 47.367188 -23.105469 43.570312 -16.5625 C 46.523438 -26.480469 51.375 -35.65625 55.492188 -45.046875 C 57.074219 -48.527344 59.710938 -51.691406 61.1875 -55.28125 C 62.769531 -59.183594 61.820312 -64.140625 59.183594 -67.410156 C 53.382812 -74.480469 45.046875 -62.242188 41.566406 -58.550781 C 34.496094 -51.058594 28.589844 -42.199219 23.105469 -33.652344 C 23.84375 -35.972656 24.265625 -38.191406 25.109375 -40.511719 C 26.164062 -43.464844 27.324219 -46.3125 28.273438 -49.265625 C 29.328125 -52.324219 30.277344 -55.492188 31.226562 -58.550781 C 32.175781 -61.609375 33.230469 -65.722656 32.492188 -68.996094 C 31.964844 -71.316406 31.015625 -74.585938 29.328125 -76.378906 C 26.691406 -79.226562 23 -79.015625 19.621094 -77.960938 C 16.5625 -77.011719 13.925781 -75.535156 11.5 -73.53125 C 10.234375 -72.371094 9.074219 -71.210938 7.914062 -69.945312 L 6.855469 -68.46875 C 6.222656 -67.621094 6.328125 -66.777344 6.011719 -66.039062 C 4.957031 -63.71875 3.164062 -61.925781 2.425781 -59.394531 C 1.6875 -56.546875 1.476562 -52.535156 3.164062 -50.003906 C 4.007812 -48.84375 5.378906 -48 6.644531 -49.054688 C 7.382812 -49.792969 7.066406 -50.53125 7.171875 -51.375 C 7.277344 -52.007812 7.597656 -53.699219 8.019531 -54.753906 C 9.917969 -59.921875 12.765625 -65.089844 16.5625 -69.101562 C 18.144531 -70.894531 20.042969 -72.582031 22.363281 -73.214844 C 25.53125 -73.953125 25.636719 -71.421875 25.214844 -68.890625 L 24.582031 -64.984375 L 24.582031 -66.039062 C 21.519531 -54.648438 15.613281 -44.097656 11.605469 -33.125 C 9.601562 -27.746094 7.277344 -22.683594 5.0625 -17.40625 C 2.847656 -12.132812 0.316406 -5.90625 0 -0.105469 C -0.105469 1.898438 0.316406 3.902344 1.898438 5.167969 C 3.691406 6.644531 6.433594 6.75 7.808594 4.851562 C 8.863281 3.375 9.390625 0.738281 10.023438 -0.949219 C 11.078125 -3.691406 12.027344 -6.433594 13.1875 -9.074219 C 14.242188 -11.921875 16.035156 -14.453125 17.617188 -17.089844 C 20.992188 -22.574219 24.371094 -28.0625 27.957031 -33.441406 C 31.332031 -38.613281 34.707031 -43.675781 38.402344 -48.527344 C 42.09375 -53.277344 45.785156 -58.128906 50.636719 -61.714844 C 51.375 -62.242188 53.910156 -64.246094 54.964844 -63.824219 C 55.808594 -63.507812 54.964844 -61.925781 54.648438 -61.082031 C 52.855469 -56.230469 50.53125 -51.269531 47.894531 -46.839844 C 41.777344 -36.5 35.445312 -24.898438 33.125 -12.976562 C 32.28125 -8.96875 32.28125 -4.957031 35.445312 -1.898438 C 38.71875 1.160156 39.878906 -1.476562 40.933594 -4.429688 C 41.777344 -6.855469 43.570312 -8.96875 44.835938 -11.183594 C 46.628906 -14.136719 48.316406 -17.195312 50.214844 -20.253906 C 51.375 -21.941406 52.21875 -24.265625 53.59375 -25.53125 C 55.808594 -27.746094 57.390625 -30.277344 59.183594 -32.808594 C 62.875 -38.085938 66.566406 -43.148438 71.316406 -47.472656 C 72.476562 -48.527344 75.113281 -51.269531 76.90625 -50.847656 C 79.121094 -50.320312 76.695312 -46.839844 76.800781 -45.46875 L 77.539062 -46.945312 C 76.90625 -45.046875 76.273438 -43.253906 75.535156 -41.460938 C 75.429688 -41.566406 75.851562 -42.832031 75.851562 -42.832031 C 75.429688 -42.9375 73.214844 -37.875 72.898438 -37.34375 C 71.316406 -34.074219 69.417969 -30.804688 68.257812 -27.324219 C 67.09375 -24.160156 65.933594 -21.203125 64.5625 -18.144531 L 62.242188 -12.871094 C 61.820312 -11.710938 60.554688 -9.179688 60.871094 -7.914062 C 60.976562 -7.914062 61.082031 -7.914062 61.082031 -8.019531 L 60.554688 -6.117188 C 60.660156 -6.539062 60.765625 -7.488281 60.765625 -7.597656 C 60.34375 -7.277344 60.238281 -5.167969 60.238281 -5.167969 C 57.707031 3.691406 56.652344 13.082031 62.769531 20.992188 C 65.722656 24.792969 69.207031 26.480469 73.847656 25.214844 C 76.0625 24.6875 78.171875 23.632812 79.964844 22.152344 C 81.019531 21.203125 84.292969 18.355469 83.871094 16.667969 C 83.554688 14.980469 79.4375 17.511719 78.382812 17.828125 Z M 64.351562 -13.820312 C 65.300781 -15.71875 66.144531 -17.722656 66.988281 -19.726562 C 67.621094 -21.308594 68.046875 -24.160156 69.101562 -25.425781 C 69.417969 -25.320312 69.417969 -25.003906 69.101562 -24.371094 C 68.363281 -20.570312 66.25 -16.351562 64.5625 -12.765625 C 63.191406 -9.707031 61.820312 -6.539062 60.765625 -3.375 C 61.820312 -6.855469 62.664062 -10.339844 64.351562 -13.820312 Z M 17.617188 -45.363281 C 19.09375 -48.84375 20.253906 -52.535156 21.730469 -56.019531 C 22.363281 -57.496094 23.105469 -59.183594 23.632812 -60.871094 C 22.363281 -55.914062 20.78125 -50.953125 18.460938 -46.207031 C 16.246094 -41.671875 14.242188 -37.027344 12.34375 -32.28125 C 14.03125 -36.710938 15.71875 -41.039062 17.617188 -45.363281 Z M 51.375 -29.75 C 48.632812 -25.320312 45.679688 -20.78125 45.679688 -20.78125 C 45.996094 -20.675781 49.898438 -27.21875 51.375 -29.75 Z M 67.410156 -49.898438 L 63.507812 -45.785156 C 64.773438 -47.261719 66.039062 -48.632812 67.410156 -49.898438 Z M 59.921875 0 C 59.605469 -0.105469 59.605469 -0.316406 59.921875 -0.738281 C 60.132812 -0.632812 60.132812 -0.421875 59.921875 0 Z M 62.453125 -44.519531 L 62.664062 -44.835938 L 62.664062 -44.730469 C 62.875 -45.152344 63.191406 -45.46875 63.296875 -45.574219 L 63.507812 -45.785156 L 63.296875 -45.46875 L 62.875 -45.046875 C 62.875 -45.046875 62.980469 -45.046875 62.980469 -45.152344 L 62.875 -45.046875 L 62.769531 -44.835938 Z M 51.585938 -30.066406 L 52.007812 -30.699219 L 52.007812 -30.59375 Z M 51.375 -29.75 L 51.585938 -30.066406 C 51.585938 -29.960938 51.480469 -29.855469 51.375 -29.75 Z M 63.191406 -45.46875 L 63.296875 -45.574219 C 63.296875 -45.574219 63.296875 -45.46875 63.191406 -45.46875 Z M 63.191406 -45.46875 "/></g></g></g><g fill="#ffffff" fill-opacity="1"><g transform="translate(165.074512, 215.952351)"><g><path d="M 53.699219 -25.425781 C 53.59375 -27.746094 51.691406 -25.742188 51.058594 -24.898438 C 49.6875 -22.894531 48.421875 -20.78125 47.15625 -18.777344 C 44.308594 -14.453125 41.460938 -10.128906 38.191406 -6.011719 C 27.324219 7.382812 34.917969 -16.457031 34.074219 -16.246094 C 33.652344 -16.140625 33.335938 -14.558594 33.230469 -14.242188 C 34.074219 -18.039062 35.65625 -22.574219 37.660156 -26.269531 C 38.824219 -28.589844 40.195312 -30.488281 38.085938 -33.019531 C 34.179688 -37.769531 29.644531 -33.441406 27.113281 -30.171875 C 26.058594 -34.179688 23.949219 -40.089844 18.777344 -40.089844 C 16.457031 -40.089844 15.085938 -38.929688 13.503906 -37.554688 C 12.554688 -36.921875 11.816406 -36.816406 10.972656 -36.078125 C 9.601562 -35.128906 8.652344 -33.652344 7.703125 -32.386719 C 4.113281 -27.113281 1.582031 -20.464844 0.421875 -14.347656 C -0.105469 -11.394531 -0.316406 -8.125 0.527344 -5.167969 C 1.054688 -3.480469 2.953125 0.316406 5.378906 0 C 5.484375 0 5.273438 -0.105469 4.957031 -0.316406 C 6.433594 0.105469 8.125 -0.105469 9.390625 -0.949219 C 9.496094 -0.738281 8.230469 -0.210938 8.230469 -0.210938 C 9.390625 1.582031 18.039062 -8.863281 18.671875 -9.8125 C 20.042969 -11.710938 20.992188 -13.714844 22.257812 -15.71875 C 23.210938 -17.195312 24.6875 -19.09375 25.742188 -20.675781 C 25.636719 -19.9375 25.636719 -18.988281 25.636719 -18.988281 C 23.738281 -12.976562 21.941406 -6.433594 24.476562 -0.210938 C 25.636719 2.953125 28.484375 5.90625 32.070312 5.273438 C 35.234375 4.746094 37.875 1.6875 39.773438 -0.738281 C 42.09375 -3.480469 44.097656 -6.539062 46.101562 -9.707031 C 47.789062 -12.554688 49.371094 -15.402344 50.742188 -18.566406 C 51.585938 -20.570312 53.910156 -23 53.699219 -25.425781 Z M 23.421875 -24.6875 C 22.894531 -23.949219 22.363281 -23.210938 21.941406 -22.46875 L 19.199219 -18.566406 C 17.40625 -15.929688 15.507812 -13.398438 13.503906 -10.972656 C 12.976562 -10.234375 10.445312 -6.960938 9.390625 -7.277344 C 7.808594 -7.808594 9.496094 -13.292969 9.707031 -14.136719 C 10.023438 -15.613281 15.613281 -31.859375 17.089844 -32.175781 C 15.191406 -32.28125 9.074219 -13.1875 8.757812 -11.605469 C 9.601562 -16.773438 11.5 -21.835938 13.609375 -26.585938 C 14.769531 -29.011719 17.40625 -35.445312 20.886719 -35.445312 C 22.789062 -35.445312 23.210938 -31.542969 23.527344 -30.277344 C 23.421875 -30.488281 22.46875 -33.546875 22.363281 -33.441406 C 21.835938 -33.019531 23.949219 -27.21875 23.949219 -26.375 C 23.949219 -25.53125 23.949219 -25.53125 23.421875 -24.6875 Z M 25.847656 -19.515625 C 25.847656 -19.515625 26.164062 -20.992188 26.269531 -21.308594 L 26.796875 -22.046875 Z M 24.265625 -26.058594 L 24.265625 -27.113281 C 24.582031 -26.691406 24.582031 -26.375 24.265625 -26.058594 Z M 24.265625 -26.058594 "/></g></g></g><g fill="#ffffff" fill-opacity="1"><g transform="translate(211.067166, 215.952351)"><g><path d="M 41.882812 -24.792969 C 41.566406 -26.269531 40.722656 -26.480469 39.667969 -26.058594 C 37.660156 -25.109375 35.65625 -23 33.757812 -21.730469 C 29.433594 -18.988281 25.109375 -16.773438 20.464844 -14.453125 C 20.464844 -14.558594 20.359375 -14.769531 20.253906 -15.085938 C 20.359375 -14.558594 20.253906 -14.347656 20.148438 -14.242188 C 19.09375 -18.777344 18.039062 -23.316406 17.195312 -27.957031 C 17.617188 -25.953125 18.566406 -22.574219 19.304688 -19.726562 C 18.355469 -24.160156 17.195312 -29.644531 17.300781 -29.644531 C 17.089844 -29.539062 17.089844 -29.328125 17.089844 -29.117188 C 16.878906 -30.382812 16.5625 -31.964844 16.773438 -33.335938 C 16.878906 -34.917969 17.722656 -36.289062 18.25 -37.769531 C 18.144531 -37.027344 17.933594 -36.078125 17.933594 -36.078125 C 18.566406 -35.972656 18.988281 -39.878906 18.988281 -40.300781 C 18.882812 -40.933594 17.511719 -42.9375 17.511719 -42.410156 C 14.664062 -45.046875 9.074219 -39.246094 8.230469 -36.710938 C 7.597656 -35.023438 7.597656 -33.230469 7.703125 -31.4375 C 7.808594 -29.644531 8.335938 -28.0625 8.863281 -26.375 C 9.179688 -25.109375 8.757812 -24.265625 8.863281 -22.894531 C 9.074219 -20.78125 9.8125 -18.671875 10.234375 -16.667969 C 10.65625 -15.085938 12.027344 -11.921875 11.710938 -10.445312 C 11.5 -8.96875 8.335938 -7.703125 6.960938 -6.855469 C 5.167969 -5.695312 3.375 -4.324219 1.582031 -2.953125 C -1.582031 -0.527344 -4.957031 2.53125 -6.222656 6.433594 C -6.433594 6.960938 -7.171875 9.285156 -6.433594 9.707031 C -6.328125 9.8125 -6.011719 8.019531 -5.90625 7.808594 C -7.277344 14.769531 -0.421875 18.144531 6.011719 18.25 C 13.292969 18.460938 18.355469 14.242188 20.886719 7.703125 C 21.941406 4.851562 22.257812 1.898438 22.152344 -1.054688 C 22.152344 -3.058594 21.941406 -4.957031 21.625 -6.855469 C 21.414062 -8.546875 21.203125 -8.441406 22.363281 -9.390625 C 23.210938 -10.023438 24.476562 -10.445312 25.320312 -10.867188 C 28.695312 -12.660156 31.753906 -14.769531 34.8125 -16.984375 C 37.027344 -18.566406 42.304688 -21.308594 41.882812 -24.6875 Z M -0.738281 11.5 C -3.480469 10.65625 -0.738281 6.328125 0.210938 4.957031 C 1.792969 2.847656 4.113281 1.265625 6.222656 -0.210938 L 9.390625 -2.320312 C 9.707031 -2.53125 11.710938 -4.113281 11.078125 -3.902344 L 12.34375 -4.640625 L 11.605469 -4.007812 C 11.816406 -4.113281 12.132812 -4.21875 12.34375 -4.429688 C 12.449219 -1.898438 12.449219 0.632812 11.710938 3.164062 C 11.605469 3.585938 9.601562 7.808594 8.757812 8.652344 L 9.285156 8.230469 C 8.335938 9.390625 7.277344 10.339844 6.011719 11.078125 C 6.011719 10.972656 6.960938 10.339844 6.855469 10.234375 L 3.902344 11.394531 C 2.425781 11.710938 0.738281 12.027344 -0.738281 11.5 Z M 12.554688 14.558594 C 9.8125 15.71875 7.171875 16.246094 4.324219 16.351562 C 9.496094 16.035156 14.875 13.503906 17.933594 9.179688 C 16.773438 11.5 15.296875 13.292969 12.554688 14.558594 Z M 20.253906 -15.402344 C 20.148438 -16.140625 19.9375 -17.195312 19.621094 -18.355469 C 19.832031 -17.195312 20.042969 -16.035156 20.253906 -15.402344 Z M 21.625 -4.429688 C 21.519531 -4.535156 21.519531 -4.746094 21.519531 -4.957031 C 21.519531 -4.746094 21.625 -4.535156 21.625 -4.429688 Z M 21.625 -4.429688 "/></g></g></g><g fill="#ffffff" fill-opacity="1"><g transform="translate(245.24521, 215.952351)"><g><path d="M 53.699219 -25.425781 C 53.59375 -27.746094 51.691406 -25.742188 51.058594 -24.898438 C 49.6875 -22.894531 48.421875 -20.78125 47.15625 -18.777344 C 44.308594 -14.453125 41.460938 -10.128906 38.191406 -6.011719 C 27.324219 7.382812 34.917969 -16.457031 34.074219 -16.246094 C 33.652344 -16.140625 33.335938 -14.558594 33.230469 -14.242188 C 34.074219 -18.039062 35.65625 -22.574219 37.660156 -26.269531 C 38.824219 -28.589844 40.195312 -30.488281 38.085938 -33.019531 C 34.179688 -37.769531 29.644531 -33.441406 27.113281 -30.171875 C 26.058594 -34.179688 23.949219 -40.089844 18.777344 -40.089844 C 16.457031 -40.089844 15.085938 -38.929688 13.503906 -37.554688 C 12.554688 -36.921875 11.816406 -36.816406 10.972656 -36.078125 C 9.601562 -35.128906 8.652344 -33.652344 7.703125 -32.386719 C 4.113281 -27.113281 1.582031 -20.464844 0.421875 -14.347656 C -0.105469 -11.394531 -0.316406 -8.125 0.527344 -5.167969 C 1.054688 -3.480469 2.953125 0.316406 5.378906 0 C 5.484375 0 5.273438 -0.105469 4.957031 -0.316406 C 6.433594 0.105469 8.125 -0.105469 9.390625 -0.949219 C 9.496094 -0.738281 8.230469 -0.210938 8.230469 -0.210938 C 9.390625 1.582031 18.039062 -8.863281 18.671875 -9.8125 C 20.042969 -11.710938 20.992188 -13.714844 22.257812 -15.71875 C 23.210938 -17.195312 24.6875 -19.09375 25.742188 -20.675781 C 25.636719 -19.9375 25.636719 -18.988281 25.636719 -18.988281 C 23.738281 -12.976562 21.941406 -6.433594 24.476562 -0.210938 C 25.636719 2.953125 28.484375 5.90625 32.070312 5.273438 C 35.234375 4.746094 37.875 1.6875 39.773438 -0.738281 C 42.09375 -3.480469 44.097656 -6.539062 46.101562 -9.707031 C 47.789062 -12.554688 49.371094 -15.402344 50.742188 -18.566406 C 51.585938 -20.570312 53.910156 -23 53.699219 -25.425781 Z M 23.421875 -24.6875 C 22.894531 -23.949219 22.363281 -23.210938 21.941406 -22.46875 L 19.199219 -18.566406 C 17.40625 -15.929688 15.507812 -13.398438 13.503906 -10.972656 C 12.976562 -10.234375 10.445312 -6.960938 9.390625 -7.277344 C 7.808594 -7.808594 9.496094 -13.292969 9.707031 -14.136719 C 10.023438 -15.613281 15.613281 -31.859375 17.089844 -32.175781 C 15.191406 -32.28125 9.074219 -13.1875 8.757812 -11.605469 C 9.601562 -16.773438 11.5 -21.835938 13.609375 -26.585938 C 14.769531 -29.011719 17.40625 -35.445312 20.886719 -35.445312 C 22.789062 -35.445312 23.210938 -31.542969 23.527344 -30.277344 C 23.421875 -30.488281 22.46875 -33.546875 22.363281 -33.441406 C 21.835938 -33.019531 23.949219 -27.21875 23.949219 -26.375 C 23.949219 -25.53125 23.949219 -25.53125 23.421875 -24.6875 Z M 25.847656 -19.515625 C 25.847656 -19.515625 26.164062 -20.992188 26.269531 -21.308594 L 26.796875 -22.046875 Z M 24.265625 -26.058594 L 24.265625 -27.113281 C 24.582031 -26.691406 24.582031 -26.375 24.265625 -26.058594 Z M 24.265625 -26.058594 "/></g></g></g><g fill="#ffffff" fill-opacity="1"><g transform="translate(291.237865, 215.952351)"><g><path d="M 42.199219 -26.902344 C 40.722656 -25.320312 39.773438 -22.683594 38.613281 -20.78125 C 36.816406 -17.722656 35.023438 -14.769531 33.125 -11.816406 C 29.539062 -6.117188 25.953125 -0.316406 21.625 4.851562 C 19.832031 7.066406 16.035156 12.449219 12.449219 12.027344 C 9.8125 11.605469 9.8125 7.066406 9.8125 5.0625 C 9.8125 3.375 9.917969 1.6875 10.128906 0.105469 C 10.234375 -0.84375 11.078125 -4.007812 10.550781 -4.851562 L 9.707031 -1.6875 C 9.8125 -2.953125 10.023438 -4.324219 10.339844 -5.589844 C 10.234375 -5.800781 11.183594 -8.757812 11.394531 -9.707031 C 11.921875 -11.816406 12.449219 -13.925781 13.082031 -16.035156 C 13.609375 -18.144531 14.136719 -20.148438 14.769531 -22.152344 C 15.296875 -24.054688 16.035156 -25.003906 17.195312 -26.480469 C 21.941406 -32.386719 26.269531 -38.824219 30.277344 -45.257812 C 31.753906 -47.683594 32.703125 -49.792969 34.496094 -51.796875 C 37.132812 -54.542969 38.929688 -58.65625 40.617188 -62.03125 C 43.464844 -67.515625 47.261719 -75.113281 46.628906 -81.546875 L 46.628906 -82.074219 L 46.523438 -82.179688 C 45.890625 -86.296875 42.09375 -91.148438 37.449219 -89.671875 C 35.023438 -88.933594 33.230469 -86.402344 31.753906 -84.609375 L 29.328125 -81.335938 C 28.800781 -80.703125 28.0625 -79.121094 27.535156 -78.277344 L 27.640625 -78.382812 L 24.265625 -72.582031 L 25.109375 -74.375 C 24.582031 -74.480469 22.257812 -69.945312 21.941406 -69.417969 C 20.78125 -67.410156 19.726562 -65.40625 18.777344 -63.402344 C 16.667969 -59.183594 14.558594 -54.859375 13.1875 -50.320312 C 11.710938 -45.785156 10.023438 -41.355469 8.441406 -36.816406 C 7.597656 -34.390625 6.75 -31.859375 6.011719 -29.433594 C 5.378906 -27.429688 3.902344 -24.160156 4.21875 -22.046875 L 4.535156 -22.046875 C 4.21875 -21.308594 4.007812 -20.570312 3.796875 -19.832031 C 3.902344 -20.464844 3.902344 -21.203125 4.007812 -21.414062 C 3.480469 -20.675781 3.585938 -18.144531 3.480469 -17.933594 C 2.109375 -12.238281 0.527344 -6.539062 0.105469 -0.632812 C -0.210938 4.957031 -0.210938 12.34375 4.21875 16.457031 C 9.179688 20.992188 14.875 17.933594 18.988281 14.03125 C 23.84375 9.285156 27.957031 3.691406 31.753906 -1.792969 C 35.234375 -6.855469 37.980469 -12.238281 41.144531 -17.300781 C 42.410156 -19.410156 43.78125 -21.519531 44.414062 -23.84375 C 44.835938 -25.53125 44.625 -29.433594 42.199219 -26.902344 Z M 29.011719 -64.667969 C 31.121094 -69.734375 33.230469 -74.902344 36.183594 -79.648438 C 36.921875 -80.808594 41.671875 -87.140625 41.460938 -81.546875 L 41.460938 -81.441406 C 41.25 -75.535156 37.449219 -69.3125 34.917969 -64.246094 L 30.488281 -56.019531 C 29.011719 -53.488281 26.480469 -50.320312 25.636719 -47.578125 C 26.269531 -49.265625 28.167969 -51.691406 29.117188 -53.277344 C 30.699219 -55.914062 32.070312 -58.550781 33.546875 -61.1875 C 35.972656 -65.828125 38.613281 -70.683594 40.40625 -75.746094 C 35.65625 -61.609375 26.796875 -48.421875 18.988281 -35.867188 C 22.046875 -45.152344 25.109375 -55.28125 29.011719 -64.667969 Z M 25.636719 -72.054688 C 26.691406 -74.058594 28.589844 -75.746094 29.644531 -77.644531 C 27.429688 -73.214844 24.6875 -69.207031 22.363281 -64.984375 C 22.363281 -65.089844 22.363281 -65.300781 22.46875 -65.40625 C 23.421875 -67.726562 24.476562 -69.839844 25.636719 -72.054688 Z M 5.695312 -17.511719 C 5.589844 -17.300781 5.589844 -17.195312 5.589844 -17.195312 C 4.324219 -14.242188 4.21875 -10.234375 3.585938 -7.066406 C 3.480469 -6.328125 3.269531 -5.695312 3.269531 -4.957031 L 3.269531 -5.273438 L 2.953125 -1.898438 C 3.164062 -5.695312 3.585938 -9.601562 4.324219 -13.292969 L 4.324219 -13.1875 C 4.640625 -15.613281 5.167969 -17.828125 5.589844 -17.828125 C 5.800781 -17.933594 5.800781 -17.617188 5.695312 -17.511719 Z M 5.695312 -17.511719 "/></g></g></g><g fill="#ffffff" fill-opacity="1"><g transform="translate(328.580541, 215.952351)"><g><path d="M 53.699219 -25.425781 C 53.59375 -27.746094 51.691406 -25.742188 51.058594 -24.898438 C 49.6875 -22.894531 48.421875 -20.78125 47.15625 -18.777344 C 44.308594 -14.453125 41.460938 -10.128906 38.191406 -6.011719 C 27.324219 7.382812 34.917969 -16.457031 34.074219 -16.246094 C 33.652344 -16.140625 33.335938 -14.558594 33.230469 -14.242188 C 34.074219 -18.039062 35.65625 -22.574219 37.660156 -26.269531 C 38.824219 -28.589844 40.195312 -30.488281 38.085938 -33.019531 C 34.179688 -37.769531 29.644531 -33.441406 27.113281 -30.171875 C 26.058594 -34.179688 23.949219 -40.089844 18.777344 -40.089844 C 16.457031 -40.089844 15.085938 -38.929688 13.503906 -37.554688 C 12.554688 -36.921875 11.816406 -36.816406 10.972656 -36.078125 C 9.601562 -35.128906 8.652344 -33.652344 7.703125 -32.386719 C 4.113281 -27.113281 1.582031 -20.464844 0.421875 -14.347656 C -0.105469 -11.394531 -0.316406 -8.125 0.527344 -5.167969 C 1.054688 -3.480469 2.953125 0.316406 5.378906 0 C 5.484375 0 5.273438 -0.105469 4.957031 -0.316406 C 6.433594 0.105469 8.125 -0.105469 9.390625 -0.949219 C 9.496094 -0.738281 8.230469 -0.210938 8.230469 -0.210938 C 9.390625 1.582031 18.039062 -8.863281 18.671875 -9.8125 C 20.042969 -11.710938 20.992188 -13.714844 22.257812 -15.71875 C 23.210938 -17.195312 24.6875 -19.09375 25.742188 -20.675781 C 25.636719 -19.9375 25.636719 -18.988281 25.636719 -18.988281 C 23.738281 -12.976562 21.941406 -6.433594 24.476562 -0.210938 C 25.636719 2.953125 28.484375 5.90625 32.070312 5.273438 C 35.234375 4.746094 37.875 1.6875 39.773438 -0.738281 C 42.09375 -3.480469 44.097656 -6.539062 46.101562 -9.707031 C 47.789062 -12.554688 49.371094 -15.402344 50.742188 -18.566406 C 51.585938 -20.570312 53.910156 -23 53.699219 -25.425781 Z M 23.421875 -24.6875 C 22.894531 -23.949219 22.363281 -23.210938 21.941406 -22.46875 L 19.199219 -18.566406 C 17.40625 -15.929688 15.507812 -13.398438 13.503906 -10.972656 C 12.976562 -10.234375 10.445312 -6.960938 9.390625 -7.277344 C 7.808594 -7.808594 9.496094 -13.292969 9.707031 -14.136719 C 10.023438 -15.613281 15.613281 -31.859375 17.089844 -32.175781 C 15.191406 -32.28125 9.074219 -13.1875 8.757812 -11.605469 C 9.601562 -16.773438 11.5 -21.835938 13.609375 -26.585938 C 14.769531 -29.011719 17.40625 -35.445312 20.886719 -35.445312 C 22.789062 -35.445312 23.210938 -31.542969 23.527344 -30.277344 C 23.421875 -30.488281 22.46875 -33.546875 22.363281 -33.441406 C 21.835938 -33.019531 23.949219 -27.21875 23.949219 -26.375 C 23.949219 -25.53125 23.949219 -25.53125 23.421875 -24.6875 Z M 25.847656 -19.515625 C 25.847656 -19.515625 26.164062 -20.992188 26.269531 -21.308594 L 26.796875 -22.046875 Z M 24.265625 -26.058594 L 24.265625 -27.113281 C 24.582031 -26.691406 24.582031 -26.375 24.265625 -26.058594 Z M 24.265625 -26.058594 "/></g></g></g></svg>